<svg width="210" height="51" viewBox="0 0 210 51" fill="none" xmlns="http://www.w3.org/2000/svg">
<rect width="210" height="51" rx="20" fill="white"/>
<path d="M37 33.5C37 31.8431 34.7614 30.5 32 30.5C29.2386 30.5 27 31.8431 27 33.5M41 30.5004C41 29.2702 39.7659 28.2129 38 27.75M23 30.5004C23 29.2702 24.2341 28.2129 26 27.75M38 23.7361C38.6137 23.1868 39 22.3885 39 21.5C39 19.8431 37.6569 18.5 36 18.5C35.2316 18.5 34.5308 18.7889 34 19.2639M26 23.7361C25.3863 23.1868 25 22.3885 25 21.5C25 19.8431 26.3431 18.5 28 18.5C28.7684 18.5 29.4692 18.7889 30 19.2639M32 27.5C30.3431 27.5 29 26.1569 29 24.5C29 22.8431 30.3431 21.5 32 21.5C33.6569 21.5 35 22.8431 35 24.5C35 26.1569 33.6569 27.5 32 27.5Z" stroke="#464646" stroke-width="2" stroke-linecap="round" stroke-linejoin="round"/>
<path d="M66.4964 23.826H64.1058C64.0376 23.4339 63.9119 23.0866 63.7287 22.7841C63.5455 22.4773 63.3175 22.2173 63.0447 22.0043C62.772 21.7912 62.4609 21.6314 62.1115 21.5249C61.7663 21.4141 61.3935 21.3587 60.9929 21.3587C60.2813 21.3587 59.6506 21.5376 59.1009 21.8956C58.5511 22.2493 58.1207 22.7692 57.8097 23.4553C57.4986 24.1371 57.343 24.9702 57.343 25.9545C57.343 26.956 57.4986 27.7997 57.8097 28.4858C58.125 29.1676 58.5554 29.6832 59.1009 30.0327C59.6506 30.3778 60.2791 30.5504 60.9865 30.5504C61.3786 30.5504 61.745 30.4993 62.0859 30.397C62.4311 30.2905 62.7401 30.1349 63.0128 29.9304C63.2898 29.7259 63.522 29.4744 63.7095 29.1761C63.9013 28.8778 64.0334 28.5369 64.1058 28.1534L66.4964 28.1662C66.407 28.7884 66.2131 29.3722 65.9148 29.9176C65.6207 30.4631 65.2351 30.9446 64.7578 31.3622C64.2805 31.7756 63.7223 32.0994 63.0831 32.3338C62.4439 32.5639 61.7344 32.679 60.9545 32.679C59.804 32.679 58.777 32.4126 57.8736 31.88C56.9702 31.3473 56.2585 30.5781 55.7386 29.5724C55.2188 28.5668 54.9588 27.3608 54.9588 25.9545C54.9588 24.544 55.2209 23.3381 55.745 22.3366C56.2692 21.331 56.983 20.5618 57.8864 20.0291C58.7898 19.4964 59.8125 19.2301 60.9545 19.2301C61.6832 19.2301 62.3608 19.3324 62.9872 19.5369C63.6136 19.7415 64.1719 20.0419 64.6619 20.4382C65.152 20.8303 65.5547 21.3118 65.87 21.8828C66.1896 22.4496 66.3984 23.0973 66.4964 23.826ZM74.8237 28.3707V22.6818H77.1376V32.5H74.894V30.755H74.7917C74.5701 31.3047 74.2058 31.7543 73.6987 32.1037C73.1958 32.4531 72.5758 32.6278 71.8386 32.6278C71.1951 32.6278 70.6262 32.4851 70.1319 32.1996C69.6419 31.9098 69.2583 31.4901 68.9814 30.9403C68.7044 30.3864 68.5659 29.7173 68.5659 28.9332V22.6818H70.8798V28.5753C70.8798 29.1974 71.0502 29.6918 71.3912 30.0582C71.7321 30.4247 72.1795 30.608 72.7335 30.608C73.0744 30.608 73.4047 30.5249 73.7243 30.3587C74.0439 30.1925 74.3059 29.9453 74.5105 29.6172C74.7193 29.2848 74.8237 28.8693 74.8237 28.3707ZM87.277 25.277L85.1676 25.5071C85.108 25.294 85.0036 25.0938 84.8544 24.9062C84.7095 24.7188 84.5135 24.5675 84.2663 24.4524C84.0192 24.3374 83.7166 24.2798 83.3587 24.2798C82.8771 24.2798 82.4723 24.3842 82.1442 24.593C81.8203 24.8018 81.6605 25.0724 81.6648 25.4048C81.6605 25.6903 81.7649 25.9226 81.978 26.1016C82.1953 26.2805 82.5533 26.4276 83.0518 26.5426L84.7266 26.9006C85.6555 27.1009 86.3459 27.4183 86.7976 27.853C87.2536 28.2876 87.4837 28.8565 87.4879 29.5597C87.4837 30.1776 87.3026 30.723 86.9446 31.196C86.5909 31.6648 86.0987 32.0312 85.468 32.2955C84.8374 32.5597 84.1129 32.6918 83.2947 32.6918C82.093 32.6918 81.1257 32.4403 80.3928 31.9375C79.6598 31.4304 79.223 30.7251 79.0824 29.8217L81.3388 29.6044C81.4411 30.0476 81.6584 30.3821 81.9908 30.608C82.3232 30.8338 82.7557 30.9467 83.2884 30.9467C83.8381 30.9467 84.2791 30.8338 84.6115 30.608C84.9482 30.3821 85.1165 30.103 85.1165 29.7706C85.1165 29.4893 85.0078 29.2571 84.7905 29.0739C84.5774 28.8906 84.245 28.75 83.7933 28.652L82.1186 28.3004C81.1768 28.1044 80.4801 27.7741 80.0284 27.3097C79.5767 26.8409 79.353 26.2486 79.3572 25.5327C79.353 24.9276 79.517 24.4034 79.8494 23.9602C80.1861 23.5128 80.6527 23.1676 81.2493 22.9247C81.8501 22.6776 82.5426 22.554 83.3267 22.554C84.4773 22.554 85.3828 22.799 86.0433 23.2891C86.7081 23.7791 87.1193 24.4418 87.277 25.277ZM94.2987 22.6818V24.4716H88.6545V22.6818H94.2987ZM90.0479 20.3295H92.3619V29.5469C92.3619 29.858 92.4087 30.0966 92.5025 30.2628C92.6005 30.4247 92.7283 30.5355 92.886 30.5952C93.0437 30.6548 93.2184 30.6847 93.4102 30.6847C93.555 30.6847 93.6871 30.674 93.8065 30.6527C93.93 30.6314 94.0238 30.6122 94.0877 30.5952L94.4776 32.4041C94.354 32.4467 94.1772 32.4936 93.9471 32.5447C93.7212 32.5959 93.4442 32.6257 93.1161 32.6342C92.5366 32.6513 92.0146 32.5639 91.5501 32.3722C91.0856 32.1761 90.717 31.8736 90.4442 31.4645C90.1758 31.0554 90.0437 30.544 90.0479 29.9304V20.3295ZM100.411 32.6918C99.4522 32.6918 98.6213 32.4808 97.9181 32.0589C97.215 31.6371 96.6696 31.0469 96.2818 30.2884C95.8983 29.5298 95.7065 28.6435 95.7065 27.6293C95.7065 26.6151 95.8983 25.7266 96.2818 24.9638C96.6696 24.201 97.215 23.6087 97.9181 23.1868C98.6213 22.7649 99.4522 22.554 100.411 22.554C101.37 22.554 102.201 22.7649 102.904 23.1868C103.607 23.6087 104.15 24.201 104.534 24.9638C104.922 25.7266 105.116 26.6151 105.116 27.6293C105.116 28.6435 104.922 29.5298 104.534 30.2884C104.15 31.0469 103.607 31.6371 102.904 32.0589C102.201 32.4808 101.37 32.6918 100.411 32.6918ZM100.424 30.8381C100.944 30.8381 101.378 30.6953 101.728 30.4098C102.077 30.12 102.337 29.7322 102.508 29.2464C102.682 28.7607 102.77 28.2195 102.77 27.6229C102.77 27.022 102.682 26.4787 102.508 25.9929C102.337 25.5028 102.077 25.1129 101.728 24.8232C101.378 24.5334 100.944 24.3885 100.424 24.3885C99.8912 24.3885 99.448 24.5334 99.0943 24.8232C98.7449 25.1129 98.4828 25.5028 98.3081 25.9929C98.1376 26.4787 98.0524 27.022 98.0524 27.6229C98.0524 28.2195 98.1376 28.7607 98.3081 29.2464C98.4828 29.7322 98.7449 30.12 99.0943 30.4098C99.448 30.6953 99.8912 30.8381 100.424 30.8381ZM107.08 32.5V22.6818H109.291V24.3501H109.406C109.611 23.7876 109.95 23.3487 110.423 23.0334C110.896 22.7138 111.46 22.554 112.116 22.554C112.781 22.554 113.342 22.7159 113.798 23.0398C114.258 23.3594 114.582 23.7962 114.769 24.3501H114.871C115.089 23.8047 115.455 23.37 115.971 23.0462C116.491 22.718 117.107 22.554 117.818 22.554C118.722 22.554 119.459 22.8395 120.03 23.4105C120.601 23.9815 120.886 24.8146 120.886 25.9098V32.5H118.566V26.2678C118.566 25.6584 118.404 25.2131 118.08 24.9318C117.756 24.6463 117.36 24.5036 116.891 24.5036C116.333 24.5036 115.896 24.6783 115.581 25.0277C115.27 25.3729 115.114 25.8224 115.114 26.3764V32.5H112.845V26.1719C112.845 25.6648 112.692 25.2599 112.385 24.9574C112.082 24.6548 111.686 24.5036 111.196 24.5036C110.864 24.5036 110.561 24.5888 110.288 24.7592C110.016 24.9254 109.798 25.1619 109.636 25.4688C109.474 25.7713 109.393 26.125 109.393 26.5298V32.5H107.08ZM127.58 32.6918C126.596 32.6918 125.746 32.4872 125.03 32.0781C124.318 31.6648 123.771 31.081 123.387 30.3267C123.004 29.5682 122.812 28.6754 122.812 27.6484C122.812 26.6385 123.004 25.7521 123.387 24.9893C123.775 24.2223 124.316 23.6257 125.011 23.1996C125.705 22.7692 126.521 22.554 127.459 22.554C128.064 22.554 128.635 22.652 129.172 22.848C129.713 23.0398 130.191 23.3381 130.604 23.7429C131.021 24.1477 131.35 24.6634 131.588 25.2898C131.827 25.9119 131.946 26.6534 131.946 27.5142V28.2237H123.899V26.6641H129.728C129.724 26.2209 129.628 25.8267 129.441 25.4815C129.253 25.1321 128.991 24.8572 128.654 24.657C128.322 24.4567 127.934 24.3565 127.491 24.3565C127.018 24.3565 126.602 24.4716 126.244 24.7017C125.887 24.9276 125.607 25.2259 125.407 25.5966C125.211 25.9631 125.111 26.3658 125.107 26.8047V28.1662C125.107 28.7372 125.211 29.2273 125.42 29.6364C125.629 30.0412 125.921 30.3523 126.296 30.5696C126.671 30.7827 127.11 30.8892 127.612 30.8892C127.949 30.8892 128.254 30.8423 128.526 30.7486C128.799 30.6506 129.036 30.5078 129.236 30.3203C129.436 30.1328 129.588 29.9006 129.69 29.6236L131.85 29.8665C131.714 30.4375 131.454 30.9361 131.07 31.3622C130.691 31.7841 130.205 32.1122 129.613 32.3466C129.021 32.5767 128.343 32.6918 127.58 32.6918ZM133.904 32.5V22.6818H136.147V24.3182H136.25C136.429 23.7514 136.735 23.3146 137.17 23.0078C137.609 22.6967 138.11 22.5412 138.672 22.5412C138.8 22.5412 138.943 22.5476 139.1 22.5604C139.262 22.5689 139.397 22.5838 139.503 22.6051V24.7337C139.405 24.6996 139.25 24.6697 139.037 24.6442C138.828 24.6143 138.625 24.5994 138.429 24.5994C138.007 24.5994 137.628 24.6911 137.292 24.8743C136.959 25.0533 136.697 25.3026 136.505 25.6222C136.314 25.9418 136.218 26.3104 136.218 26.728V32.5H133.904ZM148.8 25.277L146.691 25.5071C146.631 25.294 146.527 25.0938 146.378 24.9062C146.233 24.7188 146.037 24.5675 145.79 24.4524C145.543 24.3374 145.24 24.2798 144.882 24.2798C144.401 24.2798 143.996 24.3842 143.668 24.593C143.344 24.8018 143.184 25.0724 143.188 25.4048C143.184 25.6903 143.288 25.9226 143.501 26.1016C143.719 26.2805 144.077 26.4276 144.575 26.5426L146.25 26.9006C147.179 27.1009 147.869 27.4183 148.321 27.853C148.777 28.2876 149.007 28.8565 149.011 29.5597C149.007 30.1776 148.826 30.723 148.468 31.196C148.114 31.6648 147.622 32.0312 146.991 32.2955C146.361 32.5597 145.636 32.6918 144.818 32.6918C143.616 32.6918 142.649 32.4403 141.916 31.9375C141.183 31.4304 140.746 30.7251 140.606 29.8217L142.862 29.6044C142.964 30.0476 143.182 30.3821 143.514 30.608C143.847 30.8338 144.279 30.9467 144.812 30.9467C145.362 30.9467 145.803 30.8338 146.135 30.608C146.472 30.3821 146.64 30.103 146.64 29.7706C146.64 29.4893 146.531 29.2571 146.314 29.0739C146.101 28.8906 145.768 28.75 145.317 28.652L143.642 28.3004C142.7 28.1044 142.004 27.7741 141.552 27.3097C141.1 26.8409 140.876 26.2486 140.881 25.5327C140.876 24.9276 141.04 24.4034 141.373 23.9602C141.71 23.5128 142.176 23.1676 142.773 22.9247C143.374 22.6776 144.066 22.554 144.85 22.554C146.001 22.554 146.906 22.799 147.567 23.2891C148.232 23.7791 148.643 24.4418 148.8 25.277Z" fill="#464646"/>
</svg>
