<svg width="64" height="51" viewBox="0 0 64 51" fill="none" xmlns="http://www.w3.org/2000/svg">
<rect width="64" height="51" rx="20" fill="#EFEFEF"/>
<path d="M37 33.5C37 31.8431 34.7614 30.5 32 30.5C29.2386 30.5 27 31.8431 27 33.5M41 30.5004C41 29.2702 39.7659 28.2129 38 27.75M23 30.5004C23 29.2702 24.2341 28.2129 26 27.75M38 23.7361C38.6137 23.1868 39 22.3885 39 21.5C39 19.8431 37.6569 18.5 36 18.5C35.2316 18.5 34.5308 18.7889 34 19.2639M26 23.7361C25.3863 23.1868 25 22.3885 25 21.5C25 19.8431 26.3431 18.5 28 18.5C28.7684 18.5 29.4692 18.7889 30 19.2639M32 27.5C30.3431 27.5 29 26.1569 29 24.5C29 22.8431 30.3431 21.5 32 21.5C33.6569 21.5 35 22.8431 35 24.5C35 26.1569 33.6569 27.5 32 27.5Z" stroke="black" stroke-width="2" stroke-linecap="round" stroke-linejoin="round"/>
</svg>
