<svg width="210" height="51" viewBox="0 0 210 51" fill="none" xmlns="http://www.w3.org/2000/svg">
<rect width="210" height="51" rx="20" fill="white"/>
<path d="M40 30.5002V24.9522C40 24.4179 39.9995 24.1506 39.9346 23.9019C39.877 23.6816 39.7825 23.4731 39.6546 23.2846C39.5102 23.072 39.3096 22.8957 38.9074 22.5438L34.1074 18.3438C33.3608 17.6905 32.9875 17.3641 32.5674 17.2398C32.1972 17.1303 31.8026 17.1303 31.4324 17.2398C31.0126 17.364 30.6398 17.6901 29.8944 18.3424L25.0928 22.5438C24.6906 22.8957 24.49 23.072 24.3457 23.2846C24.2178 23.4731 24.1225 23.6816 24.065 23.9019C24 24.1506 24 24.4179 24 24.9522V30.5002C24 31.432 24 31.8978 24.1522 32.2654C24.3552 32.7554 24.7443 33.1452 25.2344 33.3482C25.6019 33.5005 26.0679 33.5005 26.9997 33.5005C27.9316 33.5005 28.3981 33.5005 28.7656 33.3482C29.2557 33.1452 29.6447 32.7555 29.8477 32.2654C29.9999 31.8979 30 31.432 30 30.5001V29.5001C30 28.3955 30.8954 27.5001 32 27.5001C33.1046 27.5001 34 28.3955 34 29.5001V30.5001C34 31.432 34 31.8979 34.1522 32.2654C34.3552 32.7555 34.7443 33.1452 35.2344 33.3482C35.6019 33.5005 36.0679 33.5005 36.9997 33.5005C37.9316 33.5005 38.3981 33.5005 38.7656 33.3482C39.2557 33.1452 39.6447 32.7554 39.8477 32.2654C39.9999 31.8978 40 31.432 40 30.5002Z" stroke="#464646" stroke-width="2" stroke-linecap="round" stroke-linejoin="round"/>
<path d="M59.7273 32.5H55.2912V19.4091H59.8168C61.1165 19.4091 62.233 19.6712 63.1662 20.1953C64.1037 20.7152 64.8239 21.4631 65.3267 22.4389C65.8295 23.4148 66.081 24.5824 66.081 25.9418C66.081 27.3054 65.8274 28.4773 65.3203 29.4574C64.8175 30.4375 64.0909 31.1896 63.1406 31.7138C62.1946 32.2379 61.0568 32.5 59.7273 32.5ZM57.6626 30.4482H59.6122C60.5241 30.4482 61.2848 30.282 61.8942 29.9496C62.5036 29.6129 62.9616 29.1122 63.2685 28.4474C63.5753 27.7784 63.7287 26.9432 63.7287 25.9418C63.7287 24.9403 63.5753 24.1094 63.2685 23.4489C62.9616 22.7841 62.5078 22.2876 61.907 21.9595C61.3104 21.6271 60.5689 21.4609 59.6825 21.4609H57.6626V30.4482ZM71.0572 32.6982C70.435 32.6982 69.8746 32.5874 69.3761 32.3658C68.8817 32.1399 68.4897 31.8075 68.1999 31.3686C67.9144 30.9297 67.7717 30.3885 67.7717 29.745C67.7717 29.1911 67.8739 28.733 68.0785 28.3707C68.283 28.0085 68.5621 27.7188 68.9158 27.5014C69.2695 27.2841 69.668 27.12 70.1112 27.0092C70.5586 26.8942 71.021 26.8111 71.4982 26.7599C72.0735 26.7003 72.5401 26.647 72.8981 26.6001C73.256 26.549 73.516 26.4723 73.6779 26.37C73.8441 26.2635 73.9272 26.0994 73.9272 25.8778V25.8395C73.9272 25.358 73.7844 24.9851 73.4989 24.7209C73.2134 24.4567 72.8022 24.3246 72.2653 24.3246C71.6985 24.3246 71.2489 24.4482 70.9165 24.6953C70.5884 24.9425 70.3668 25.2344 70.2518 25.571L68.0913 25.2642C68.2617 24.6676 68.543 24.169 68.935 23.7685C69.3271 23.3636 69.8065 23.0611 70.3732 22.8608C70.94 22.6562 71.5664 22.554 72.2525 22.554C72.7255 22.554 73.1964 22.6094 73.6651 22.7202C74.1339 22.831 74.5621 23.0142 74.9499 23.2699C75.3377 23.5213 75.6488 23.8643 75.8832 24.299C76.1218 24.7337 76.2411 25.277 76.2411 25.929V32.5H74.0167V31.1513H73.94C73.7994 31.424 73.6012 31.6797 73.3455 31.9183C73.0941 32.1527 72.7766 32.3423 72.3931 32.4872C72.0138 32.6278 71.5685 32.6982 71.0572 32.6982ZM71.658 30.9979C72.1225 30.9979 72.5252 30.9062 72.8661 30.723C73.207 30.5355 73.4691 30.2884 73.6523 29.9815C73.8398 29.6747 73.9336 29.3402 73.9336 28.978V27.821C73.8612 27.8807 73.7376 27.9361 73.5629 27.9872C73.3924 28.0384 73.2006 28.0831 72.9876 28.1214C72.7745 28.1598 72.5636 28.1939 72.3548 28.2237C72.146 28.2536 71.9648 28.2791 71.8114 28.3004C71.4663 28.3473 71.1573 28.424 70.8846 28.5305C70.6119 28.6371 70.3967 28.7862 70.239 28.978C70.0813 29.1655 70.0025 29.4084 70.0025 29.7067C70.0025 30.1328 70.158 30.4545 70.4691 30.6719C70.7802 30.8892 71.1765 30.9979 71.658 30.9979ZM86.3278 25.277L84.2184 25.5071C84.1587 25.294 84.0543 25.0938 83.9052 24.9062C83.7603 24.7188 83.5643 24.5675 83.3171 24.4524C83.07 24.3374 82.7674 24.2798 82.4094 24.2798C81.9279 24.2798 81.5231 24.3842 81.195 24.593C80.8711 24.8018 80.7113 25.0724 80.7156 25.4048C80.7113 25.6903 80.8157 25.9226 81.0288 26.1016C81.2461 26.2805 81.604 26.4276 82.1026 26.5426L83.7773 26.9006C84.7063 27.1009 85.3967 27.4183 85.8484 27.853C86.3043 28.2876 86.5344 28.8565 86.5387 29.5597C86.5344 30.1776 86.3533 30.723 85.9954 31.196C85.6417 31.6648 85.1495 32.0312 84.5188 32.2955C83.8881 32.5597 83.1637 32.6918 82.3455 32.6918C81.1438 32.6918 80.1765 32.4403 79.4435 31.9375C78.7106 31.4304 78.2738 30.7251 78.1332 29.8217L80.3896 29.6044C80.4918 30.0476 80.7092 30.3821 81.0415 30.608C81.3739 30.8338 81.8065 30.9467 82.3391 30.9467C82.8888 30.9467 83.3299 30.8338 83.6623 30.608C83.9989 30.3821 84.1673 30.103 84.1673 29.7706C84.1673 29.4893 84.0586 29.2571 83.8413 29.0739C83.6282 28.8906 83.2958 28.75 82.8441 28.652L81.1694 28.3004C80.2276 28.1044 79.5309 27.7741 79.0792 27.3097C78.6275 26.8409 78.4038 26.2486 78.408 25.5327C78.4038 24.9276 78.5678 24.4034 78.9002 23.9602C79.2369 23.5128 79.7035 23.1676 80.3001 22.9247C80.9009 22.6776 81.5934 22.554 82.3775 22.554C83.5281 22.554 84.4336 22.799 85.0941 23.2891C85.7589 23.7791 86.1701 24.4418 86.3278 25.277ZM90.7607 26.7472V32.5H88.4467V19.4091H90.7095V24.3501H90.8246C91.0547 23.7962 91.4105 23.3594 91.892 23.0398C92.3778 22.7159 92.9957 22.554 93.7457 22.554C94.4276 22.554 95.022 22.6967 95.5291 22.9822C96.0362 23.2678 96.4283 23.6854 96.7053 24.2351C96.9865 24.7848 97.1271 25.456 97.1271 26.2486V32.5H94.8132V26.6065C94.8132 25.946 94.6428 25.4325 94.3018 25.0661C93.9652 24.6953 93.4922 24.5099 92.8828 24.5099C92.4737 24.5099 92.1072 24.5994 91.7834 24.7784C91.4638 24.9531 91.2124 25.2067 91.0291 25.5391C90.8501 25.8714 90.7607 26.2741 90.7607 26.7472ZM99.5881 32.5V19.4091H101.902V24.3054H101.998C102.117 24.0668 102.286 23.8132 102.503 23.5447C102.72 23.272 103.014 23.0398 103.385 22.848C103.756 22.652 104.229 22.554 104.804 22.554C105.563 22.554 106.246 22.7479 106.856 23.1357C107.469 23.5192 107.955 24.0881 108.313 24.8423C108.675 25.5923 108.857 26.5128 108.857 27.6037C108.857 28.6818 108.68 29.598 108.326 30.3523C107.972 31.1065 107.491 31.6818 106.881 32.0781C106.272 32.4744 105.582 32.6726 104.81 32.6726C104.248 32.6726 103.781 32.5788 103.411 32.3913C103.04 32.2038 102.741 31.978 102.516 31.7138C102.294 31.4453 102.121 31.1918 101.998 30.9531H101.864V32.5H99.5881ZM101.857 27.5909C101.857 28.2259 101.947 28.782 102.126 29.2592C102.309 29.7365 102.571 30.1094 102.912 30.3778C103.257 30.642 103.675 30.7741 104.165 30.7741C104.676 30.7741 105.104 30.6378 105.45 30.3651C105.795 30.0881 106.055 29.7109 106.229 29.2337C106.408 28.7521 106.498 28.2045 106.498 27.5909C106.498 26.9815 106.411 26.4403 106.236 25.9673C106.061 25.4943 105.801 25.1236 105.456 24.8551C105.111 24.5866 104.68 24.4524 104.165 24.4524C103.67 24.4524 103.251 24.5824 102.906 24.8423C102.56 25.1023 102.298 25.4666 102.119 25.9354C101.945 26.4041 101.857 26.956 101.857 27.5909ZM115.106 32.6918C114.148 32.6918 113.317 32.4808 112.613 32.0589C111.91 31.6371 111.365 31.0469 110.977 30.2884C110.594 29.5298 110.402 28.6435 110.402 27.6293C110.402 26.6151 110.594 25.7266 110.977 24.9638C111.365 24.201 111.91 23.6087 112.613 23.1868C113.317 22.7649 114.148 22.554 115.106 22.554C116.065 22.554 116.896 22.7649 117.599 23.1868C118.302 23.6087 118.846 24.201 119.229 24.9638C119.617 25.7266 119.811 26.6151 119.811 27.6293C119.811 28.6435 119.617 29.5298 119.229 30.2884C118.846 31.0469 118.302 31.6371 117.599 32.0589C116.896 32.4808 116.065 32.6918 115.106 32.6918ZM115.119 30.8381C115.639 30.8381 116.074 30.6953 116.423 30.4098C116.773 30.12 117.032 29.7322 117.203 29.2464C117.378 28.7607 117.465 28.2195 117.465 27.6229C117.465 27.022 117.378 26.4787 117.203 25.9929C117.032 25.5028 116.773 25.1129 116.423 24.8232C116.074 24.5334 115.639 24.3885 115.119 24.3885C114.586 24.3885 114.143 24.5334 113.79 24.8232C113.44 25.1129 113.178 25.5028 113.003 25.9929C112.833 26.4787 112.748 27.022 112.748 27.6229C112.748 28.2195 112.833 28.7607 113.003 29.2464C113.178 29.7322 113.44 30.12 113.79 30.4098C114.143 30.6953 114.586 30.8381 115.119 30.8381ZM124.6 32.6982C123.978 32.6982 123.418 32.5874 122.919 32.3658C122.425 32.1399 122.033 31.8075 121.743 31.3686C121.457 30.9297 121.315 30.3885 121.315 29.745C121.315 29.1911 121.417 28.733 121.621 28.3707C121.826 28.0085 122.105 27.7188 122.459 27.5014C122.813 27.2841 123.211 27.12 123.654 27.0092C124.102 26.8942 124.564 26.8111 125.041 26.7599C125.616 26.7003 126.083 26.647 126.441 26.6001C126.799 26.549 127.059 26.4723 127.221 26.37C127.387 26.2635 127.47 26.0994 127.47 25.8778V25.8395C127.47 25.358 127.327 24.9851 127.042 24.7209C126.756 24.4567 126.345 24.3246 125.808 24.3246C125.241 24.3246 124.792 24.4482 124.46 24.6953C124.131 24.9425 123.91 25.2344 123.795 25.571L121.634 25.2642C121.805 24.6676 122.086 24.169 122.478 23.7685C122.87 23.3636 123.349 23.0611 123.916 22.8608C124.483 22.6562 125.109 22.554 125.795 22.554C126.268 22.554 126.739 22.6094 127.208 22.7202C127.677 22.831 128.105 23.0142 128.493 23.2699C128.881 23.5213 129.192 23.8643 129.426 24.299C129.665 24.7337 129.784 25.277 129.784 25.929V32.5H127.56V31.1513H127.483C127.342 31.424 127.144 31.6797 126.888 31.9183C126.637 32.1527 126.32 32.3423 125.936 32.4872C125.557 32.6278 125.112 32.6982 124.6 32.6982ZM125.201 30.9979C125.665 30.9979 126.068 30.9062 126.409 30.723C126.75 30.5355 127.012 30.2884 127.195 29.9815C127.383 29.6747 127.477 29.3402 127.477 28.978V27.821C127.404 27.8807 127.281 27.9361 127.106 27.9872C126.935 28.0384 126.744 28.0831 126.531 28.1214C126.317 28.1598 126.107 28.1939 125.898 28.2237C125.689 28.2536 125.508 28.2791 125.354 28.3004C125.009 28.3473 124.7 28.424 124.428 28.5305C124.155 28.6371 123.94 28.7862 123.782 28.978C123.624 29.1655 123.545 29.4084 123.545 29.7067C123.545 30.1328 123.701 30.4545 124.012 30.6719C124.323 30.8892 124.719 30.9979 125.201 30.9979ZM132.111 32.5V22.6818H134.354V24.3182H134.457C134.636 23.7514 134.942 23.3146 135.377 23.0078C135.816 22.6967 136.317 22.5412 136.879 22.5412C137.007 22.5412 137.15 22.5476 137.308 22.5604C137.469 22.5689 137.604 22.5838 137.71 22.6051V24.7337C137.612 24.6996 137.457 24.6697 137.244 24.6442C137.035 24.6143 136.832 24.5994 136.636 24.5994C136.214 24.5994 135.835 24.6911 135.499 24.8743C135.166 25.0533 134.904 25.3026 134.712 25.6222C134.521 25.9418 134.425 26.3104 134.425 26.728V32.5H132.111ZM142.487 32.6726C141.715 32.6726 141.025 32.4744 140.416 32.0781C139.806 31.6818 139.325 31.1065 138.971 30.3523C138.617 29.598 138.441 28.6818 138.441 27.6037C138.441 26.5128 138.619 25.5923 138.977 24.8423C139.34 24.0881 139.828 23.5192 140.441 23.1357C141.055 22.7479 141.739 22.554 142.493 22.554C143.068 22.554 143.541 22.652 143.912 22.848C144.283 23.0398 144.577 23.272 144.794 23.5447C145.012 23.8132 145.18 24.0668 145.299 24.3054H145.395V19.4091H147.715V32.5H145.44V30.9531H145.299C145.18 31.1918 145.007 31.4453 144.781 31.7138C144.556 31.978 144.257 32.2038 143.887 32.3913C143.516 32.5788 143.049 32.6726 142.487 32.6726ZM143.132 30.7741C143.622 30.7741 144.04 30.642 144.385 30.3778C144.73 30.1094 144.992 29.7365 145.171 29.2592C145.35 28.782 145.44 28.2259 145.44 27.5909C145.44 26.956 145.35 26.4041 145.171 25.9354C144.997 25.4666 144.737 25.1023 144.392 24.8423C144.051 24.5824 143.631 24.4524 143.132 24.4524C142.617 24.4524 142.186 24.5866 141.841 24.8551C141.496 25.1236 141.236 25.4943 141.061 25.9673C140.887 26.4403 140.799 26.9815 140.799 27.5909C140.799 28.2045 140.887 28.7521 141.061 29.2337C141.24 29.7109 141.502 30.0881 141.847 30.3651C142.197 30.6378 142.625 30.7741 143.132 30.7741Z" fill="#464646"/>
</svg>
