<svg width="210" height="51" viewBox="0 0 210 51" fill="none" xmlns="http://www.w3.org/2000/svg">
<rect width="210" height="51" rx="20" fill="white"/>
<path d="M26 31.5C26.0637 31.5 26.1293 31.5 26.1969 31.5H32M26 31.5C25.0117 31.4992 24.4933 31.4868 24.0918 31.2822C23.7155 31.0905 23.4097 30.7837 23.218 30.4074C23 29.9796 23 29.4203 23 28.3002V22.7002C23 21.5801 23 21.0196 23.218 20.5918C23.4097 20.2155 23.7155 19.9097 24.0918 19.718C24.5196 19.5 25.0801 19.5 26.2002 19.5H37.8002C38.9203 19.5 39.4796 19.5 39.9074 19.718C40.2837 19.9097 40.5905 20.2155 40.7822 20.5918C41 21.0192 41 21.579 41 22.6969V28.3031C41 29.421 41 29.98 40.7822 30.4074C40.5905 30.7837 40.2837 31.0905 39.9074 31.2822C39.48 31.5 38.921 31.5 37.8031 31.5H32M26 31.5C26 30.3954 27.3432 29.5 29 29.5C30.6569 29.5 32 30.3954 32 31.5M26 31.5C26 31.5 26 31.4999 26 31.5ZM38 27.5H34M38 24.5H35M29 26.5C27.8954 26.5 27 25.6046 27 24.5C27 23.3954 27.8954 22.5 29 22.5C30.1046 22.5 31 23.3954 31 24.5C31 25.6046 30.1046 26.5 29 26.5Z" stroke="#464646" stroke-width="2" stroke-linecap="round" stroke-linejoin="round"/>
<path d="M59.7273 32.5H55.2912V19.4091H59.8168C61.1165 19.4091 62.233 19.6712 63.1662 20.1953C64.1037 20.7152 64.8239 21.4631 65.3267 22.4389C65.8295 23.4148 66.081 24.5824 66.081 25.9418C66.081 27.3054 65.8274 28.4773 65.3203 29.4574C64.8175 30.4375 64.0909 31.1896 63.1406 31.7138C62.1946 32.2379 61.0568 32.5 59.7273 32.5ZM57.6626 30.4482H59.6122C60.5241 30.4482 61.2848 30.282 61.8942 29.9496C62.5036 29.6129 62.9616 29.1122 63.2685 28.4474C63.5753 27.7784 63.7287 26.9432 63.7287 25.9418C63.7287 24.9403 63.5753 24.1094 63.2685 23.4489C62.9616 22.7841 62.5078 22.2876 61.907 21.9595C61.3104 21.6271 60.5689 21.4609 59.6825 21.4609H57.6626V30.4482ZM68.2319 32.5V22.6818H70.4755V24.3182H70.5778C70.7567 23.7514 71.0636 23.3146 71.4982 23.0078C71.9371 22.6967 72.4379 22.5412 73.0004 22.5412C73.1282 22.5412 73.271 22.5476 73.4286 22.5604C73.5906 22.5689 73.7248 22.5838 73.8313 22.6051V24.7337C73.7333 24.6996 73.5778 24.6697 73.3647 24.6442C73.1559 24.6143 72.9535 24.5994 72.7575 24.5994C72.3356 24.5994 71.9563 24.6911 71.6197 24.8743C71.2873 25.0533 71.0252 25.3026 70.8335 25.6222C70.6417 25.9418 70.5458 26.3104 70.5458 26.728V32.5H68.2319ZM75.3686 32.5V22.6818H77.6825V32.5H75.3686ZM76.532 21.2884C76.1655 21.2884 75.8501 21.1669 75.5859 20.924C75.3217 20.6768 75.1896 20.3807 75.1896 20.0355C75.1896 19.6861 75.3217 19.3899 75.5859 19.147C75.8501 18.8999 76.1655 18.7763 76.532 18.7763C76.9027 18.7763 77.218 18.8999 77.478 19.147C77.7422 19.3899 77.8743 19.6861 77.8743 20.0355C77.8743 20.3807 77.7422 20.6768 77.478 20.924C77.218 21.1669 76.9027 21.2884 76.532 21.2884ZM88.8319 22.6818L85.3354 32.5H82.7786L79.2821 22.6818H81.7495L84.0059 29.9751H84.1081L86.3709 22.6818H88.8319ZM94.4457 32.6918C93.4613 32.6918 92.6112 32.4872 91.8952 32.0781C91.1836 31.6648 90.636 31.081 90.2525 30.3267C89.869 29.5682 89.6772 28.6754 89.6772 27.6484C89.6772 26.6385 89.869 25.7521 90.2525 24.9893C90.6403 24.2223 91.1815 23.6257 91.8761 23.1996C92.5707 22.7692 93.3867 22.554 94.3242 22.554C94.9293 22.554 95.5004 22.652 96.0373 22.848C96.5785 23.0398 97.0558 23.3381 97.4691 23.7429C97.8867 24.1477 98.2148 24.6634 98.4535 25.2898C98.6921 25.9119 98.8114 26.6534 98.8114 27.5142V28.2237H90.7638V26.6641H96.5934C96.5891 26.2209 96.4933 25.8267 96.3058 25.4815C96.1183 25.1321 95.8562 24.8572 95.5195 24.657C95.1871 24.4567 94.7994 24.3565 94.3562 24.3565C93.8832 24.3565 93.4677 24.4716 93.1097 24.7017C92.7518 24.9276 92.4727 25.2259 92.2724 25.5966C92.0763 25.9631 91.9762 26.3658 91.9719 26.8047V28.1662C91.9719 28.7372 92.0763 29.2273 92.2852 29.6364C92.494 30.0412 92.7859 30.3523 93.1609 30.5696C93.5359 30.7827 93.9748 30.8892 94.4776 30.8892C94.8143 30.8892 95.119 30.8423 95.3917 30.7486C95.6644 30.6506 95.9009 30.5078 96.1012 30.3203C96.3015 30.1328 96.4528 29.9006 96.555 29.6236L98.7156 29.8665C98.5792 30.4375 98.3192 30.9361 97.9357 31.3622C97.5565 31.7841 97.0707 32.1122 96.4783 32.3466C95.886 32.5767 95.2085 32.6918 94.4457 32.6918ZM100.769 32.5V22.6818H103.013V24.3182H103.115C103.294 23.7514 103.601 23.3146 104.035 23.0078C104.474 22.6967 104.975 22.5412 105.537 22.5412C105.665 22.5412 105.808 22.5476 105.966 22.5604C106.128 22.5689 106.262 22.5838 106.368 22.6051V24.7337C106.27 24.6996 106.115 24.6697 105.902 24.6442C105.693 24.6143 105.491 24.5994 105.295 24.5994C104.873 24.5994 104.493 24.6911 104.157 24.8743C103.824 25.0533 103.562 25.3026 103.371 25.6222C103.179 25.9418 103.083 26.3104 103.083 26.728V32.5H100.769ZM115.666 25.277L113.556 25.5071C113.497 25.294 113.392 25.0938 113.243 24.9062C113.098 24.7188 112.902 24.5675 112.655 24.4524C112.408 24.3374 112.105 24.2798 111.747 24.2798C111.266 24.2798 110.861 24.3842 110.533 24.593C110.209 24.8018 110.049 25.0724 110.053 25.4048C110.049 25.6903 110.154 25.9226 110.367 26.1016C110.584 26.2805 110.942 26.4276 111.441 26.5426L113.115 26.9006C114.044 27.1009 114.735 27.4183 115.186 27.853C115.642 28.2876 115.872 28.8565 115.877 29.5597C115.872 30.1776 115.691 30.723 115.333 31.196C114.98 31.6648 114.487 32.0312 113.857 32.2955C113.226 32.5597 112.502 32.6918 111.683 32.6918C110.482 32.6918 109.514 32.4403 108.781 31.9375C108.048 31.4304 107.612 30.7251 107.471 29.8217L109.727 29.6044C109.83 30.0476 110.047 30.3821 110.379 30.608C110.712 30.8338 111.144 30.9467 111.677 30.9467C112.227 30.9467 112.668 30.8338 113 30.608C113.337 30.3821 113.505 30.103 113.505 29.7706C113.505 29.4893 113.396 29.2571 113.179 29.0739C112.966 28.8906 112.634 28.75 112.182 28.652L110.507 28.3004C109.566 28.1044 108.869 27.7741 108.417 27.3097C107.965 26.8409 107.742 26.2486 107.746 25.5327C107.742 24.9276 107.906 24.4034 108.238 23.9602C108.575 23.5128 109.041 23.1676 109.638 22.9247C110.239 22.6776 110.931 22.554 111.715 22.554C112.866 22.554 113.771 22.799 114.432 23.2891C115.097 23.7791 115.508 24.4418 115.666 25.277Z" fill="#464646"/>
</svg>
