<svg width="64" height="51" viewBox="0 0 64 51" fill="none" xmlns="http://www.w3.org/2000/svg">
<rect width="64" height="51" rx="20" fill="#EFEFEF"/>
<path d="M26 31.5C26.0637 31.5 26.1293 31.5 26.1969 31.5H32M26 31.5C25.0117 31.4992 24.4933 31.4868 24.0918 31.2822C23.7155 31.0905 23.4097 30.7837 23.218 30.4074C23 29.9796 23 29.4203 23 28.3002V22.7002C23 21.5801 23 21.0196 23.218 20.5918C23.4097 20.2155 23.7155 19.9097 24.0918 19.718C24.5196 19.5 25.0801 19.5 26.2002 19.5H37.8002C38.9203 19.5 39.4796 19.5 39.9074 19.718C40.2837 19.9097 40.5905 20.2155 40.7822 20.5918C41 21.0192 41 21.579 41 22.6969V28.3031C41 29.421 41 29.98 40.7822 30.4074C40.5905 30.7837 40.2837 31.0905 39.9074 31.2822C39.48 31.5 38.921 31.5 37.8031 31.5H32M26 31.5C26 30.3954 27.3432 29.5 29 29.5C30.6569 29.5 32 30.3954 32 31.5M26 31.5C26 31.5 26 31.4999 26 31.5ZM38 27.5H34M38 24.5H35M29 26.5C27.8954 26.5 27 25.6046 27 24.5C27 23.3954 27.8954 22.5 29 22.5C30.1046 22.5 31 23.3954 31 24.5C31 25.6046 30.1046 26.5 29 26.5Z" stroke="black" stroke-width="2" stroke-linecap="round" stroke-linejoin="round"/>
</svg>
