<svg width="64" height="51" viewBox="0 0 64 51" fill="none" xmlns="http://www.w3.org/2000/svg">
<rect width="64" height="51" rx="20" fill="#EFEFEF"/>
<path d="M28 17.5H27.2002C26.0801 17.5 25.5196 17.5 25.0918 17.718C24.7155 17.9097 24.4097 18.2155 24.218 18.5918C24 19.0196 24 19.5801 24 20.7002V30.3002C24 31.4203 24 31.9801 24.218 32.4079C24.4097 32.7842 24.7155 33.0905 25.0918 33.2822C25.5192 33.5 26.079 33.5 27.1969 33.5H28M28 17.5H36.8002C37.9203 17.5 38.4796 17.5 38.9074 17.718C39.2837 17.9097 39.5905 18.2155 39.7822 18.5918C40 19.0192 40 19.579 40 20.6969V30.3036C40 31.4215 40 31.9805 39.7822 32.4079C39.5905 32.7842 39.2837 33.0905 38.9074 33.2822C38.48 33.5 37.921 33.5 36.8031 33.5H28M28 17.5V33.5M32 24.5H36M32 21.5H36" stroke="black" stroke-width="2" stroke-linecap="round" stroke-linejoin="round"/>
</svg>
