<svg width="210" height="51" viewBox="0 0 210 51" fill="none" xmlns="http://www.w3.org/2000/svg">
<rect width="210" height="51" rx="20" fill="white"/>
<path d="M28 17.5H27.2002C26.0801 17.5 25.5196 17.5 25.0918 17.718C24.7155 17.9097 24.4097 18.2155 24.218 18.5918C24 19.0196 24 19.5801 24 20.7002V30.3002C24 31.4203 24 31.9801 24.218 32.4079C24.4097 32.7842 24.7155 33.0905 25.0918 33.2822C25.5192 33.5 26.079 33.5 27.1969 33.5H28M28 17.5H36.8002C37.9203 17.5 38.4796 17.5 38.9074 17.718C39.2837 17.9097 39.5905 18.2155 39.7822 18.5918C40 19.0192 40 19.579 40 20.6969V30.3036C40 31.4215 40 31.9805 39.7822 32.4079C39.5905 32.7842 39.2837 33.0905 38.9074 33.2822C38.48 33.5 37.921 33.5 36.8031 33.5H28M28 17.5V33.5M32 24.5H36M32 21.5H36" stroke="#464646" stroke-width="2" stroke-linecap="round" stroke-linejoin="round"/>
<path d="M55.2912 32.5V19.4091H60.2003C61.206 19.4091 62.0497 19.5966 62.7315 19.9716C63.4176 20.3466 63.9354 20.8622 64.2848 21.5185C64.6385 22.1705 64.8153 22.9119 64.8153 23.7429C64.8153 24.5824 64.6385 25.3281 64.2848 25.9801C63.9311 26.6321 63.4091 27.1456 62.7188 27.5206C62.0284 27.8913 61.1783 28.0767 60.1683 28.0767H56.9148V26.1271H59.8487C60.4368 26.1271 60.9183 26.0249 61.2933 25.8203C61.6683 25.6158 61.9453 25.3345 62.1243 24.9766C62.3075 24.6186 62.3991 24.2074 62.3991 23.7429C62.3991 23.2784 62.3075 22.8693 62.1243 22.5156C61.9453 22.1619 61.6662 21.8871 61.2869 21.6911C60.9119 21.4908 60.4283 21.3906 59.8359 21.3906H57.6626V32.5H55.2912ZM66.7729 32.5V22.6818H69.0868V32.5H66.7729ZM67.9363 21.2884C67.5698 21.2884 67.2544 21.1669 66.9902 20.924C66.726 20.6768 66.5939 20.3807 66.5939 20.0355C66.5939 19.6861 66.726 19.3899 66.9902 19.147C67.2544 18.8999 67.5698 18.7763 67.9363 18.7763C68.307 18.7763 68.6223 18.8999 68.8823 19.147C69.1465 19.3899 69.2786 19.6861 69.2786 20.0355C69.2786 20.3807 69.1465 20.6768 68.8823 20.924C68.6223 21.1669 68.307 21.2884 67.9363 21.2884ZM75.7489 32.6918C74.7688 32.6918 73.9272 32.4766 73.2241 32.0462C72.5252 31.6158 71.9862 31.0213 71.6069 30.2628C71.2319 29.5 71.0444 28.6222 71.0444 27.6293C71.0444 26.6321 71.2362 25.7521 71.6197 24.9893C72.0032 24.2223 72.5444 23.6257 73.2433 23.1996C73.9464 22.7692 74.7773 22.554 75.7362 22.554C76.533 22.554 77.2383 22.701 77.8519 22.995C78.4698 23.2848 78.962 23.696 79.3285 24.2287C79.695 24.7571 79.9038 25.375 79.9549 26.0824H77.7433C77.6538 25.6094 77.4407 25.2152 77.104 24.8999C76.7717 24.5803 76.3263 24.4205 75.7681 24.4205C75.2951 24.4205 74.8796 24.5483 74.5217 24.804C74.1637 25.0554 73.8846 25.4176 73.6843 25.8906C73.4883 26.3636 73.3903 26.9304 73.3903 27.5909C73.3903 28.2599 73.4883 28.8352 73.6843 29.3168C73.8803 29.794 74.1552 30.1626 74.5089 30.4226C74.8668 30.6783 75.2866 30.8061 75.7681 30.8061C76.109 30.8061 76.4137 30.7422 76.6822 30.6143C76.9549 30.4822 77.1829 30.2926 77.3661 30.0455C77.5494 29.7983 77.6751 29.4979 77.7433 29.1442H79.9549C79.8995 29.8388 79.695 30.4545 79.3413 30.9915C78.9876 31.5241 78.506 31.9418 77.8967 32.2443C77.2873 32.5426 76.5714 32.6918 75.7489 32.6918ZM83.9643 29.419L83.9579 26.6257H84.3287L87.8571 22.6818H90.5609L86.2207 27.5142H85.7413L83.9643 29.419ZM81.8549 32.5V19.4091H84.1689V32.5H81.8549ZM88.0169 32.5L84.8208 28.032L86.3805 26.402L90.7846 32.5H88.0169ZM98.3608 28.3707V22.6818H100.675V32.5H98.4311V30.755H98.3288C98.1072 31.3047 97.7429 31.7543 97.2358 32.1037C96.733 32.4531 96.1129 32.6278 95.3757 32.6278C94.7322 32.6278 94.1634 32.4851 93.669 32.1996C93.179 31.9098 92.7955 31.4901 92.5185 30.9403C92.2415 30.3864 92.103 29.7173 92.103 28.9332V22.6818H94.4169V28.5753C94.4169 29.1974 94.5874 29.6918 94.9283 30.0582C95.2692 30.4247 95.7166 30.608 96.2706 30.608C96.6115 30.608 96.9418 30.5249 97.2614 30.3587C97.581 30.1925 97.843 29.9453 98.0476 29.6172C98.2564 29.2848 98.3608 28.8693 98.3608 28.3707ZM103.054 36.1818V22.6818H105.33V24.3054H105.464C105.583 24.0668 105.752 23.8132 105.969 23.5447C106.186 23.272 106.48 23.0398 106.851 22.848C107.222 22.652 107.695 22.554 108.27 22.554C109.029 22.554 109.713 22.7479 110.322 23.1357C110.936 23.5192 111.421 24.0881 111.779 24.8423C112.142 25.5923 112.323 26.5128 112.323 27.6037C112.323 28.6818 112.146 29.598 111.792 30.3523C111.438 31.1065 110.957 31.6818 110.347 32.0781C109.738 32.4744 109.048 32.6726 108.276 32.6726C107.714 32.6726 107.247 32.5788 106.877 32.3913C106.506 32.2038 106.208 31.978 105.982 31.7138C105.76 31.4453 105.588 31.1918 105.464 30.9531H105.368V36.1818H103.054ZM105.323 27.5909C105.323 28.2259 105.413 28.782 105.592 29.2592C105.775 29.7365 106.037 30.1094 106.378 30.3778C106.723 30.642 107.141 30.7741 107.631 30.7741C108.142 30.7741 108.57 30.6378 108.916 30.3651C109.261 30.0881 109.521 29.7109 109.695 29.2337C109.874 28.7521 109.964 28.2045 109.964 27.5909C109.964 26.9815 109.877 26.4403 109.702 25.9673C109.527 25.4943 109.267 25.1236 108.922 24.8551C108.577 24.5866 108.146 24.4524 107.631 24.4524C107.137 24.4524 106.717 24.5824 106.372 24.8423C106.026 25.1023 105.764 25.4666 105.585 25.9354C105.411 26.4041 105.323 26.956 105.323 27.5909ZM122.064 25.277L119.955 25.5071C119.895 25.294 119.791 25.0938 119.642 24.9062C119.497 24.7188 119.301 24.5675 119.053 24.4524C118.806 24.3374 118.504 24.2798 118.146 24.2798C117.664 24.2798 117.259 24.3842 116.931 24.593C116.607 24.8018 116.448 25.0724 116.452 25.4048C116.448 25.6903 116.552 25.9226 116.765 26.1016C116.982 26.2805 117.34 26.4276 117.839 26.5426L119.514 26.9006C120.443 27.1009 121.133 27.4183 121.585 27.853C122.041 28.2876 122.271 28.8565 122.275 29.5597C122.271 30.1776 122.09 30.723 121.732 31.196C121.378 31.6648 120.886 32.0312 120.255 32.2955C119.624 32.5597 118.9 32.6918 118.082 32.6918C116.88 32.6918 115.913 32.4403 115.18 31.9375C114.447 31.4304 114.01 30.7251 113.869 29.8217L116.126 29.6044C116.228 30.0476 116.445 30.3821 116.778 30.608C117.11 30.8338 117.543 30.9467 118.075 30.9467C118.625 30.9467 119.066 30.8338 119.399 30.608C119.735 30.3821 119.904 30.103 119.904 29.7706C119.904 29.4893 119.795 29.2571 119.578 29.0739C119.365 28.8906 119.032 28.75 118.58 28.652L116.906 28.3004C115.964 28.1044 115.267 27.7741 114.816 27.3097C114.364 26.8409 114.14 26.2486 114.144 25.5327C114.14 24.9276 114.304 24.4034 114.637 23.9602C114.973 23.5128 115.44 23.1676 116.036 22.9247C116.637 22.6776 117.33 22.554 118.114 22.554C119.264 22.554 120.17 22.799 120.83 23.2891C121.495 23.7791 121.906 24.4418 122.064 25.277Z" fill="#464646"/>
</svg>
