<svg width="210" height="51" viewBox="0 0 210 51" fill="none" xmlns="http://www.w3.org/2000/svg">
<rect width="210" height="51" rx="20" fill="white"/>
<path d="M23 28.5002V30.3C23 31.4201 23 31.9798 23.218 32.4076C23.4097 32.7839 23.7155 33.0905 24.0918 33.2822C24.5192 33.5 25.079 33.5 26.1969 33.5H41.0002M23 28.5002V18.5M23 28.5002L26.8534 25.2891L26.8566 25.2865C27.5537 24.7056 27.9029 24.4146 28.2815 24.2964C28.7289 24.1567 29.2107 24.1788 29.6436 24.3584C30.0105 24.5106 30.3323 24.8324 30.9758 25.4759L30.9822 25.4823C31.6357 26.1358 31.9633 26.4635 32.3362 26.6153C32.7774 26.7951 33.2685 26.8106 33.7207 26.6606C34.1041 26.5334 34.4542 26.2275 35.1543 25.615L41 20.5" stroke="#464646" stroke-width="2" stroke-linecap="round" stroke-linejoin="round"/>
<path d="M55.2912 32.5V19.4091H60.2003C61.206 19.4091 62.0497 19.5838 62.7315 19.9332C63.4176 20.2827 63.9354 20.7727 64.2848 21.4034C64.6385 22.0298 64.8153 22.7607 64.8153 23.5959C64.8153 24.4354 64.6364 25.1641 64.2784 25.782C63.9247 26.3956 63.4027 26.8707 62.7124 27.2074C62.022 27.5398 61.174 27.706 60.1683 27.706H56.6719V25.7372H59.8487C60.4368 25.7372 60.9183 25.6562 61.2933 25.4943C61.6683 25.3281 61.9453 25.0874 62.1243 24.772C62.3075 24.4524 62.3991 24.0604 62.3991 23.5959C62.3991 23.1314 62.3075 22.7351 62.1243 22.407C61.9411 22.0746 61.6619 21.8232 61.2869 21.6527C60.9119 21.478 60.4283 21.3906 59.8359 21.3906H57.6626V32.5H55.2912ZM62.054 26.5682L65.2947 32.5H62.6484L59.4652 26.5682H62.054ZM71.1019 32.6918C70.1175 32.6918 69.2674 32.4872 68.5515 32.0781C67.8398 31.6648 67.2923 31.081 66.9087 30.3267C66.5252 29.5682 66.3335 28.6754 66.3335 27.6484C66.3335 26.6385 66.5252 25.7521 66.9087 24.9893C67.2965 24.2223 67.8377 23.6257 68.5323 23.1996C69.2269 22.7692 70.043 22.554 70.9805 22.554C71.5856 22.554 72.1566 22.652 72.6935 22.848C73.2347 23.0398 73.712 23.3381 74.1254 23.7429C74.543 24.1477 74.8711 24.6634 75.1097 25.2898C75.3484 25.9119 75.4677 26.6534 75.4677 27.5142V28.2237H67.4201V26.6641H73.2496C73.2454 26.2209 73.1495 25.8267 72.962 25.4815C72.7745 25.1321 72.5124 24.8572 72.1758 24.657C71.8434 24.4567 71.4556 24.3565 71.0124 24.3565C70.5394 24.3565 70.1239 24.4716 69.766 24.7017C69.408 24.9276 69.1289 25.2259 68.9286 25.5966C68.7326 25.9631 68.6325 26.3658 68.6282 26.8047V28.1662C68.6282 28.7372 68.7326 29.2273 68.9414 29.6364C69.1502 30.0412 69.4421 30.3523 69.8171 30.5696C70.1921 30.7827 70.631 30.8892 71.1339 30.8892C71.4705 30.8892 71.7752 30.8423 72.0479 30.7486C72.3207 30.6506 72.5572 30.5078 72.7575 30.3203C72.9577 30.1328 73.109 29.9006 73.2113 29.6236L75.3718 29.8665C75.2354 30.4375 74.9755 30.9361 74.592 31.3622C74.2127 31.7841 73.7269 32.1122 73.1346 32.3466C72.5423 32.5767 71.8647 32.6918 71.1019 32.6918ZM77.4252 36.1818V22.6818H79.7008V24.3054H79.835C79.9544 24.0668 80.1227 23.8132 80.34 23.5447C80.5574 23.272 80.8514 23.0398 81.2221 22.848C81.5929 22.652 82.0659 22.554 82.6412 22.554C83.3997 22.554 84.0836 22.7479 84.693 23.1357C85.3066 23.5192 85.7924 24.0881 86.1504 24.8423C86.5126 25.5923 86.6937 26.5128 86.6937 27.6037C86.6937 28.6818 86.5169 29.598 86.1632 30.3523C85.8095 31.1065 85.3279 31.6818 84.7186 32.0781C84.1092 32.4744 83.4189 32.6726 82.6476 32.6726C82.0851 32.6726 81.6184 32.5788 81.2477 32.3913C80.877 32.2038 80.5787 31.978 80.3528 31.7138C80.1312 31.4453 79.9586 31.1918 79.835 30.9531H79.7392V36.1818H77.4252ZM79.6944 27.5909C79.6944 28.2259 79.7839 28.782 79.9629 29.2592C80.1461 29.7365 80.4082 30.1094 80.7491 30.3778C81.0943 30.642 81.5119 30.7741 82.002 30.7741C82.5133 30.7741 82.9416 30.6378 83.2868 30.3651C83.6319 30.0881 83.8919 29.7109 84.0666 29.2337C84.2456 28.7521 84.3351 28.2045 84.3351 27.5909C84.3351 26.9815 84.2477 26.4403 84.073 25.9673C83.8983 25.4943 83.6383 25.1236 83.2931 24.8551C82.948 24.5866 82.5176 24.4524 82.002 24.4524C81.5076 24.4524 81.0879 24.5824 80.7427 24.8423C80.3975 25.1023 80.1355 25.4666 79.9565 25.9354C79.7818 26.4041 79.6944 26.956 79.6944 27.5909ZM92.9579 32.6918C91.9991 32.6918 91.1681 32.4808 90.465 32.0589C89.7619 31.6371 89.2164 31.0469 88.8287 30.2884C88.4451 29.5298 88.2534 28.6435 88.2534 27.6293C88.2534 26.6151 88.4451 25.7266 88.8287 24.9638C89.2164 24.201 89.7619 23.6087 90.465 23.1868C91.1681 22.7649 91.9991 22.554 92.9579 22.554C93.9167 22.554 94.7477 22.7649 95.4508 23.1868C96.1539 23.6087 96.6973 24.201 97.0808 24.9638C97.4686 25.7266 97.6625 26.6151 97.6625 27.6293C97.6625 28.6435 97.4686 29.5298 97.0808 30.2884C96.6973 31.0469 96.1539 31.6371 95.4508 32.0589C94.7477 32.4808 93.9167 32.6918 92.9579 32.6918ZM92.9707 30.8381C93.4906 30.8381 93.9252 30.6953 94.2747 30.4098C94.6241 30.12 94.8841 29.7322 95.0545 29.2464C95.2292 28.7607 95.3166 28.2195 95.3166 27.6229C95.3166 27.022 95.2292 26.4787 95.0545 25.9929C94.8841 25.5028 94.6241 25.1129 94.2747 24.8232C93.9252 24.5334 93.4906 24.3885 92.9707 24.3885C92.438 24.3885 91.9949 24.5334 91.6412 24.8232C91.2917 25.1129 91.0297 25.5028 90.8549 25.9929C90.6845 26.4787 90.5993 27.022 90.5993 27.6229C90.5993 28.2195 90.6845 28.7607 90.8549 29.2464C91.0297 29.7322 91.2917 30.12 91.6412 30.4098C91.9949 30.6953 92.438 30.8381 92.9707 30.8381ZM99.6264 32.5V22.6818H101.87V24.3182H101.972C102.151 23.7514 102.458 23.3146 102.893 23.0078C103.332 22.6967 103.832 22.5412 104.395 22.5412C104.523 22.5412 104.665 22.5476 104.823 22.5604C104.985 22.5689 105.119 22.5838 105.226 22.6051V24.7337C105.128 24.6996 104.972 24.6697 104.759 24.6442C104.55 24.6143 104.348 24.5994 104.152 24.5994C103.73 24.5994 103.351 24.6911 103.014 24.8743C102.682 25.0533 102.42 25.3026 102.228 25.6222C102.036 25.9418 101.94 26.3104 101.94 26.728V32.5H99.6264ZM112.193 22.6818V24.4716H106.549V22.6818H112.193ZM107.942 20.3295H110.256V29.5469C110.256 29.858 110.303 30.0966 110.397 30.2628C110.495 30.4247 110.623 30.5355 110.781 30.5952C110.938 30.6548 111.113 30.6847 111.305 30.6847C111.45 30.6847 111.582 30.674 111.701 30.6527C111.825 30.6314 111.918 30.6122 111.982 30.5952L112.372 32.4041C112.249 32.4467 112.072 32.4936 111.842 32.5447C111.616 32.5959 111.339 32.6257 111.011 32.6342C110.431 32.6513 109.909 32.5639 109.445 32.3722C108.98 32.1761 108.612 31.8736 108.339 31.4645C108.07 31.0554 107.938 30.544 107.942 29.9304V20.3295ZM121.748 25.277L119.638 25.5071C119.579 25.294 119.474 25.0938 119.325 24.9062C119.18 24.7188 118.984 24.5675 118.737 24.4524C118.49 24.3374 118.187 24.2798 117.829 24.2798C117.348 24.2798 116.943 24.3842 116.615 24.593C116.291 24.8018 116.131 25.0724 116.135 25.4048C116.131 25.6903 116.236 25.9226 116.449 26.1016C116.666 26.2805 117.024 26.4276 117.523 26.5426L119.197 26.9006C120.126 27.1009 120.817 27.4183 121.268 27.853C121.724 28.2876 121.954 28.8565 121.959 29.5597C121.954 30.1776 121.773 30.723 121.415 31.196C121.062 31.6648 120.569 32.0312 119.939 32.2955C119.308 32.5597 118.584 32.6918 117.765 32.6918C116.564 32.6918 115.596 32.4403 114.863 31.9375C114.131 31.4304 113.694 30.7251 113.553 29.8217L115.809 29.6044C115.912 30.0476 116.129 30.3821 116.461 30.608C116.794 30.8338 117.226 30.9467 117.759 30.9467C118.309 30.9467 118.75 30.8338 119.082 30.608C119.419 30.3821 119.587 30.103 119.587 29.7706C119.587 29.4893 119.479 29.2571 119.261 29.0739C119.048 28.8906 118.716 28.75 118.264 28.652L116.589 28.3004C115.648 28.1044 114.951 27.7741 114.499 27.3097C114.047 26.8409 113.824 26.2486 113.828 25.5327C113.824 24.9276 113.988 24.4034 114.32 23.9602C114.657 23.5128 115.123 23.1676 115.72 22.9247C116.321 22.6776 117.013 22.554 117.797 22.554C118.948 22.554 119.854 22.799 120.514 23.2891C121.179 23.7791 121.59 24.4418 121.748 25.277Z" fill="#464646"/>
</svg>
