<svg width="64" height="51" viewBox="0 0 64 51" fill="none" xmlns="http://www.w3.org/2000/svg">
<rect width="64" height="51" rx="20" fill="#EFEFEF"/>
<path d="M23 28.5002V30.3C23 31.4201 23 31.9798 23.218 32.4076C23.4097 32.7839 23.7155 33.0905 24.0918 33.2822C24.5192 33.5 25.079 33.5 26.1969 33.5H41.0002M23 28.5002V18.5M23 28.5002L26.8534 25.2891L26.8566 25.2865C27.5537 24.7056 27.9029 24.4146 28.2815 24.2964C28.7289 24.1567 29.2107 24.1788 29.6436 24.3584C30.0105 24.5106 30.3323 24.8324 30.9758 25.4759L30.9822 25.4823C31.6357 26.1358 31.9633 26.4635 32.3362 26.6153C32.7774 26.7951 33.2685 26.8106 33.7207 26.6606C34.1041 26.5334 34.4542 26.2275 35.1543 25.615L41 20.5" stroke="black" stroke-width="2" stroke-linecap="round" stroke-linejoin="round"/>
</svg>
