<svg width="64" height="51" viewBox="0 0 64 51" fill="none" xmlns="http://www.w3.org/2000/svg">
<rect width="64" height="51" rx="20" fill="#E6E6E6"/>
<path d="M40 30.5002V24.9522C40 24.4179 39.9995 24.1506 39.9346 23.9019C39.877 23.6816 39.7825 23.4731 39.6546 23.2846C39.5102 23.072 39.3096 22.8957 38.9074 22.5438L34.1074 18.3438C33.3608 17.6905 32.9875 17.3641 32.5674 17.2398C32.1972 17.1303 31.8026 17.1303 31.4324 17.2398C31.0126 17.364 30.6398 17.6901 29.8944 18.3424L25.0928 22.5438C24.6906 22.8957 24.49 23.072 24.3457 23.2846C24.2178 23.4731 24.1225 23.6816 24.065 23.9019C24 24.1506 24 24.4179 24 24.9522V30.5002C24 31.432 24 31.8978 24.1522 32.2654C24.3552 32.7554 24.7443 33.1452 25.2344 33.3482C25.6019 33.5005 26.0679 33.5005 26.9997 33.5005C27.9316 33.5005 28.3981 33.5005 28.7656 33.3482C29.2557 33.1452 29.6447 32.7555 29.8477 32.2654C29.9999 31.8979 30 31.432 30 30.5001V29.5001C30 28.3955 30.8954 27.5001 32 27.5001C33.1046 27.5001 34 28.3955 34 29.5001V30.5001C34 31.432 34 31.8979 34.1522 32.2654C34.3552 32.7555 34.7443 33.1452 35.2344 33.3482C35.6019 33.5005 36.0679 33.5005 36.9997 33.5005C37.9316 33.5005 38.3981 33.5005 38.7656 33.3482C39.2557 33.1452 39.6447 32.7554 39.8477 32.2654C39.9999 31.8978 40 31.432 40 30.5002Z" stroke="#464646" stroke-width="2" stroke-linecap="round" stroke-linejoin="round"/>
</svg>
