<?xml version="1.0" encoding="UTF-8"?>
<svg version="1.1" xmlns="http://www.w3.org/2000/svg" width="975" height="474">
<path d="M0 0 C1.00289063 0.40089844 2.00578125 0.80179688 3.0390625 1.21484375 C17.82913043 7.80731589 28.55762226 20.31137875 35 35 C35 35.99 35 36.98 35 38 C35.66 38.33 36.32 38.66 37 39 C39.75400175 52.32581494 39.3528034 67.48077889 34 80 C33.649375 80.86496094 33.29875 81.72992188 32.9375 82.62109375 C26.23201078 97.54546385 14.36099076 107.54552671 -0.41015625 113.87109375 C-2.88311503 114.76123091 -2.88311503 114.76123091 -4 116 C0.60249228 117.03718136 4.95316933 118 9.6875 118 C12.74425883 118 14.94165109 118.53058279 17.83325195 119.39794922 C20.34606695 120.09615787 22.87120488 120.64737381 25.421875 121.19140625 C76.61641862 132.19778455 124.20441073 155.41513295 162 192 C162.50756836 192.48710449 163.01513672 192.97420898 163.53808594 193.47607422 C188.54811817 217.55035694 188.54811817 217.55035694 191 231 C191.66 231.33 192.32 231.66 193 232 C193.13496251 234.10241603 193.23197307 236.2072961 193.3125 238.3125 C194.42480543 247.39632764 199.52721256 251.26133243 206.42529297 256.71191406 C208.78742926 258.64410493 210.87407426 260.81362139 213 263 C214.0029045 263.98412414 215.00824928 264.96576571 216.015625 265.9453125 C222.83456161 272.62583613 229.13055188 279.45490401 235 287 C236.1389514 288.44560528 237.27830685 289.89089228 238.41796875 291.3359375 C244.49897614 299.07444869 250.52838707 306.81315058 256 315 C260.3276617 313.42816061 262.68780933 310.0777273 265.5 306.625 C270.03907187 301.18036535 274.7758083 296.08814028 279.83862305 291.13061523 C283.2044675 287.82609974 286.34224282 284.40640361 289.40625 280.82421875 C292.09972163 277.74125 294.86857972 274.64394325 298 272 C298.66 272 299.32 272 300 272 C300.25394531 271.40832031 300.50789062 270.81664062 300.76953125 270.20703125 C302.13553212 267.7569027 303.52936211 266.4640418 305.6875 264.6875 C308.41185164 262.38530014 311.00661871 260.0507004 313.5 257.5 C317.16258395 253.78814362 321.03362067 250.38269809 325 247 C325.93585937 246.19820312 326.87171875 245.39640625 327.8359375 244.5703125 C347.38025668 227.88764182 367.52299902 212.1310902 388.70605469 197.57666016 C390.12587453 196.60079846 391.54362205 195.62190476 392.95800781 194.63818359 C403.98426848 186.97125302 415.54742369 180.23817257 427.2109375 173.59179688 C428.94913137 172.59976046 430.68411022 171.60204268 432.4140625 170.59570312 C434.43341051 169.42136902 436.46347982 168.26921398 438.5 167.125 C439.5828125 166.50882813 440.665625 165.89265625 441.78125 165.2578125 C446.36334247 163.46723753 450.57975976 163.29940414 455.375 164.6875 C457.70415776 166.5687428 458.27627894 168.10511577 459 171 C458.72311259 175.43019863 457.71758055 178.49344445 455 182 C453.09855578 183.55085255 451.1520781 184.9813108 449.1328125 186.375 C446.51538943 188.3692271 444.32244554 190.67051674 442 193 C440.22657859 194.48046684 438.43447691 195.93882492 436.625 197.375 C432.77879342 200.48491804 429.19837526 203.66063399 425.77563477 207.22583008 C424.04531459 208.9547228 422.25347255 210.53689593 420.390625 212.12109375 C415.52621745 216.34975142 410.98258531 220.87065051 406.4375 225.4375 C405.62603516 226.24509766 404.81457031 227.05269531 403.97851562 227.88476562 C399.66647707 232.2037647 395.50972799 236.59685325 391.53051758 241.22436523 C389.45006047 243.63801407 387.28712291 245.97202015 385.125 248.3125 C380.20422698 253.7149752 375.5729951 259.30237581 371 265 C370.07610551 266.13198786 369.1515971 267.26347487 368.2265625 268.39453125 C353.39626242 286.61517739 339.88808371 305.99209206 327.35498047 325.85693359 C326.36542022 327.42204348 325.37167428 328.98450916 324.37548828 330.54541016 C312.20523586 349.62138669 301.18671444 369.22210701 290.4375 389.125 C288.29514154 393.08522608 286.14873154 397.0432286 284 401 C283.4332959 402.04655762 282.8665918 403.09311523 282.28271484 404.17138672 C280.57663053 407.30918366 278.85320686 410.43684358 277.125 413.5625 C276.35820923 414.98103271 276.35820923 414.98103271 275.57592773 416.42822266 C270.39594919 425.71976192 264.26493654 432.48059319 254 436 C246.7590639 437.5292857 241.09995259 435.31608634 234.7578125 431.8125 C220.22882503 422.2637037 215.67028196 401.95963725 210.5625 386.375 C209.32145336 382.60940067 208.07303066 378.84636733 206.81640625 375.0859375 C206.51062653 374.16939392 206.2048468 373.25285034 205.88980103 372.30853271 C203.35182174 364.80851725 200.48861418 357.46311512 197.45985413 350.14852905 C197.13786545 349.36813263 196.81587677 348.58773621 196.48413086 347.78369141 C196.05359657 346.75618271 196.05359657 346.75618271 195.61436462 345.70791626 C195 344 195 344 195 342 C194.34 341.67 193.68 341.34 193 341 C192.30883789 339.26977539 192.30883789 339.26977539 191.66015625 337.03515625 C190.04149971 331.90991669 187.86171321 327.22636112 185.4375 322.4375 C184.78104492 321.13594971 184.78104492 321.13594971 184.11132812 319.80810547 C168.19334637 288.75210029 144.82937724 260.27835202 118 238 C117.13882568 237.28408691 117.13882568 237.28408691 116.26025391 236.55371094 C109.13845425 230.65111795 102.01391754 224.88777252 94.37109375 219.66796875 C78.72375162 208.66069513 78.72375162 208.66069513 75 201 C74.81444273 199.29552394 74.6699282 197.58617776 74.5625 195.875 C74.27073845 193.28095395 74.27073845 193.28095395 73 191 C68.36260668 187.99304468 63.25228971 186.55696393 58 185 C56.35797177 184.4820914 54.71604776 183.96385229 53.07421875 183.4453125 C-25.73376046 159.23877378 -109.51515632 171.92815874 -181.70996094 209.77099609 C-185.38429668 211.74291572 -189.00571439 213.80425804 -192.625 215.875 C-200.64682291 220.44684034 -207.29499684 223.81339466 -216.5625 224.5625 C-221.81394433 225.29868378 -224.16638808 226.47732189 -227.5625 230.5625 C-228.66028734 232.09859804 -229.75552162 233.63732154 -230.80175781 235.20898438 C-232.11707177 237.17498748 -233.4863965 239.09507852 -234.8671875 241.015625 C-236.95067642 243.92166705 -239.0080796 246.84368616 -241.046875 249.78125 C-242.79178029 252.28997134 -244.55712371 254.77408161 -246.390625 257.21875 C-265.40686679 282.83246343 -280.39210577 311.93385905 -294.93334961 340.20703125 C-300.00450615 350.0598109 -305.26388571 359.7991247 -310.62255859 369.49804688 C-311.95314301 371.91489004 -313.26937785 374.33900642 -314.58203125 376.765625 C-337.68371188 419.26314808 -337.68371188 419.26314808 -352 425 C-357.46461007 425.65453547 -362.39057725 425.7315558 -367.4375 423.4375 C-373.20432952 417.95197923 -375.7835339 412.77091244 -377.61328125 405.19140625 C-377.82848923 404.35625992 -378.0436972 403.52111359 -378.26542664 402.66065979 C-378.72290674 400.88266654 -379.17425062 399.10308468 -379.61987305 397.32208252 C-380.78945318 392.66221062 -382.01504469 388.01711731 -383.23828125 383.37109375 C-383.47741241 382.45976685 -383.71654358 381.54843994 -383.96292114 380.60949707 C-393.65414986 343.89460962 -409.86413791 309.24327887 -428 276 C-428.37205566 275.31695801 -428.74411133 274.63391602 -429.12744141 273.93017578 C-444.93325557 245.27096774 -464.6630651 217.99594997 -485.46875 192.7890625 C-486.05591797 192.07508301 -486.64308594 191.36110352 -487.24804688 190.62548828 C-488.38440051 189.24685189 -489.52602906 187.87254002 -490.67382812 186.50341797 C-494.5168442 181.84727303 -497.62513027 177.62408809 -498.5 171.5 C-497.84260466 166.89823265 -496.44873278 165.08184631 -493 162 C-488.75194717 160.55726508 -486.60991327 160.78968508 -482.375 162.25 C-476.53772165 165.51300472 -471.62726519 170.22504486 -466.61523438 174.60693359 C-464.26954962 176.62998033 -461.85372472 178.56213191 -459.4375 180.5 C-454.44831582 184.55825768 -449.72329385 188.84515566 -445.01953125 193.2265625 C-442.76839242 195.3151656 -440.47088646 197.34199745 -438.15234375 199.35546875 C-428.4287744 207.82976957 -419.1189743 216.8187788 -409.9375 225.875 C-409.4312207 226.36830811 -408.92494141 226.86161621 -408.40332031 227.36987305 C-407.22890799 228.54115971 -406.10816947 229.76585366 -405 231 C-405 231.66 -405 232.32 -405 233 C-404.40783691 233.25499268 -403.81567383 233.50998535 -403.20556641 233.77270508 C-400.77059039 235.12765576 -399.48083646 236.49727169 -397.7109375 238.63671875 C-395.32150739 241.45960701 -392.90030512 244.21419224 -390.3515625 246.89453125 C-389.7433667 247.53430908 -389.1351709 248.17408691 -388.50854492 248.83325195 C-387.8869751 249.48640381 -387.26540527 250.13955566 -386.625 250.8125 C-381.54264462 256.189015 -376.71605846 261.6387559 -372.10546875 267.42578125 C-369.05109232 271.16016728 -365.7659768 274.66949473 -362.49609375 278.21484375 C-359.14718384 281.95157734 -356.02130909 285.8496326 -352.91015625 289.78515625 C-351.01312831 292.18467032 -351.01312831 292.18467032 -348 294 C-347.75121094 293.44183594 -347.50242187 292.88367188 -347.24609375 292.30859375 C-345.78385602 289.5995577 -344.03155987 287.4303568 -342.0625 285.0625 C-341.25941406 284.09570312 -340.45632813 283.12890625 -339.62890625 282.1328125 C-338.7529441 281.08825651 -337.87663296 280.04399309 -337 279 C-336.55382324 278.46600586 -336.10764648 277.93201172 -335.64794922 277.38183594 C-330.18228151 270.84328511 -324.63723195 264.40235027 -318.875 258.12109375 C-316.96524418 256.03473201 -316.96524418 256.03473201 -315.375 253.72265625 C-314.92125 253.15417969 -314.4675 252.58570313 -314 252 C-313.34 252 -312.68 252 -312 252 C-311.73195557 251.40525879 -311.46391113 250.81051758 -311.18774414 250.19775391 C-309.99020301 247.98187204 -308.79681017 246.57920472 -306.99609375 244.8359375 C-306.13274414 243.98902344 -306.13274414 243.98902344 -305.25195312 243.125 C-304.65318359 242.5475 -304.05441406 241.97 -303.4375 241.375 C-302.24650616 240.21839849 -301.05759995 239.05964222 -299.87109375 237.8984375 C-299.34443115 237.38974121 -298.81776855 236.88104492 -298.27514648 236.35693359 C-296.8835783 235.00599895 -296.8835783 235.00599895 -296 233 C-295.34 233 -294.68 233 -294 233 C-293.77570313 232.44957031 -293.55140625 231.89914063 -293.3203125 231.33203125 C-291.58906024 228.27416852 -289.37762275 226.15178174 -286.875 223.6875 C-286.3814502 223.20039551 -285.88790039 222.71329102 -285.37939453 222.21142578 C-282.01581588 218.91771699 -278.54079253 215.79602301 -274.9609375 212.7421875 C-272.71368115 210.7456211 -270.61105073 208.63987054 -268.5 206.5 C-264.49249289 202.45166939 -260.33335937 198.6935345 -256 195 C-255.00484375 194.13890625 -254.0096875 193.2778125 -252.984375 192.390625 C-239.96385758 181.13637569 -226.69981888 170.206675 -213.06347656 159.70556641 C-209.92492324 157.28748958 -206.81100524 154.86446546 -203.79296875 152.296875 C-201.27221554 150.22386397 -198.78380948 148.5045342 -196 146.8125 C-192.16067271 144.42659511 -188.4760031 141.92297022 -184.84008789 139.24414062 C-168.37164363 127.13878234 -168.37164363 127.13878234 -160.0625 126.875 C-156.46942511 128.19490506 -154.45746635 129.02125291 -152 132 C-150.99406376 135.22570222 -151.11822107 137.74874809 -152 141 C-153.82188256 144.04332527 -155.83102714 146.75788855 -158.0546875 149.51953125 C-159.73357827 151.66028555 -160.84136813 153.56648666 -162 156 C-161.31301025 155.6282666 -160.62602051 155.2565332 -159.91821289 154.87353516 C-92.72216789 118.72746536 -92.72216789 118.72746536 -59 120 C-58.67 119.34 -58.34 118.68 -58 118 C-55.8125 117.62109375 -55.8125 117.62109375 -53 117.4375 C-51.52080078 117.32921875 -51.52080078 117.32921875 -50.01171875 117.21875 C-49.01785156 117.1465625 -48.02398437 117.074375 -47 117 C-43.99683865 116.69066149 -40.99943357 116.3441973 -38 116 C-38.88300781 115.6596875 -39.76601563 115.319375 -40.67578125 114.96875 C-49.01458911 111.60098227 -56.0167114 107.78517536 -63 102 C-63.64453125 101.48050781 -64.2890625 100.96101563 -64.953125 100.42578125 C-75.83104876 90.69934942 -81.48310347 75.13791531 -82.875 61 C-83.67003752 43.52856581 -78.07587296 28.036006 -66.75 14.8125 C-60.90878627 8.5477244 -53.95302556 3.29759596 -46 0 C-45.01 0 -44.02 0 -43 0 C-42.67 -0.66 -42.34 -1.32 -42 -2 C-29.40483291 -6.92854364 -12.08637167 -5.05978027 0 0 Z " fill="#FEBB29" transform="translate(506,24)"/>
<path d="M0 0 C2.9375 1.5 2.9375 1.5 5 4 C6.00511017 7.22305329 5.85906173 9.74748303 5 13 C-0.24964927 22.37919343 -8.33932411 30.5357517 -16 38 C-20.92238552 42.80319943 -25.52823184 47.77589278 -30 53 C-30.90739364 54.05482382 -31.81495908 55.10949986 -32.72265625 56.1640625 C-35.30585681 59.16805016 -37.88094691 62.1788834 -40.45361328 65.19189453 C-41.93285207 66.92148759 -43.41717424 68.64659341 -44.90234375 70.37109375 C-50.23505265 76.5885728 -55.29804101 82.91974006 -60.125 89.5390625 C-62 92 -62 92 -63.5625 93.5234375 C-65.45593707 95.46832666 -66.60616859 97.66820204 -68 100 C-69.80309229 102.51787125 -71.6853862 104.97453161 -73.5625 107.4375 C-88.70728069 127.49472014 -102.48574426 148.19348304 -115 170 C-115.56477051 170.98387695 -116.12954102 171.96775391 -116.71142578 172.98144531 C-124.07739024 185.86720531 -131.09508479 198.90450717 -137.8815918 212.10400391 C-142.96985352 221.99136464 -148.24523193 231.76536231 -153.62255859 241.49804688 C-154.95314301 243.91489004 -156.26937785 246.33900642 -157.58203125 248.765625 C-180.68371188 291.26314808 -180.68371188 291.26314808 -195 297 C-200.46461007 297.65453547 -205.39057725 297.7315558 -210.4375 295.4375 C-216.20432952 289.95197923 -218.7835339 284.77091244 -220.61328125 277.19140625 C-220.82848923 276.35625992 -221.0436972 275.52111359 -221.26542664 274.66065979 C-221.72290674 272.88266654 -222.17425062 271.10308468 -222.61987305 269.32208252 C-223.78945318 264.66221062 -225.01504469 260.01711731 -226.23828125 255.37109375 C-226.596978 254.00410339 -226.596978 254.00410339 -226.96292114 252.60949707 C-236.65414986 215.89460962 -252.86413791 181.24327887 -271 148 C-271.37205566 147.31695801 -271.74411133 146.63391602 -272.12744141 145.93017578 C-287.93325557 117.27096774 -307.6630651 89.99594997 -328.46875 64.7890625 C-329.05591797 64.07508301 -329.64308594 63.36110352 -330.24804688 62.62548828 C-331.38440051 61.24685189 -332.52602906 59.87254002 -333.67382812 58.50341797 C-337.5168442 53.84727303 -340.62513027 49.62408809 -341.5 43.5 C-340.84260466 38.89823265 -339.44873278 37.08184631 -336 34 C-331.75194717 32.55726508 -329.60991327 32.78968508 -325.375 34.25 C-319.53772165 37.51300472 -314.62726519 42.22504486 -309.61523438 46.60693359 C-307.26954962 48.62998033 -304.85372472 50.56213191 -302.4375 52.5 C-297.44831582 56.55825768 -292.72329385 60.84515566 -288.01953125 65.2265625 C-285.76839242 67.3151656 -283.47088646 69.34199745 -281.15234375 71.35546875 C-271.4287744 79.82976957 -262.1189743 88.8187788 -252.9375 97.875 C-252.4312207 98.36830811 -251.92494141 98.86161621 -251.40332031 99.36987305 C-250.22890799 100.54115971 -249.10816947 101.76585366 -248 103 C-248 103.66 -248 104.32 -248 105 C-247.11175537 105.38248901 -247.11175537 105.38248901 -246.20556641 105.77270508 C-243.77059039 107.12765576 -242.48083646 108.49727169 -240.7109375 110.63671875 C-238.32150739 113.45960701 -235.90030512 116.21419224 -233.3515625 118.89453125 C-232.7433667 119.53430908 -232.1351709 120.17408691 -231.50854492 120.83325195 C-230.8869751 121.48640381 -230.26540527 122.13955566 -229.625 122.8125 C-224.54264462 128.189015 -219.71605846 133.6387559 -215.10546875 139.42578125 C-212.05109232 143.16016728 -208.7659768 146.66949473 -205.49609375 150.21484375 C-202.14718384 153.95157734 -199.02130909 157.8496326 -195.91015625 161.78515625 C-194.01312831 164.18467032 -194.01312831 164.18467032 -191 166 C-190.75121094 165.44183594 -190.50242188 164.88367188 -190.24609375 164.30859375 C-188.78385602 161.5995577 -187.03155987 159.4303568 -185.0625 157.0625 C-184.25941406 156.09570312 -183.45632812 155.12890625 -182.62890625 154.1328125 C-181.7529441 153.08825651 -180.87663296 152.04399309 -180 151 C-179.55382324 150.46600586 -179.10764648 149.93201172 -178.64794922 149.38183594 C-173.18228151 142.84328511 -167.63723195 136.40235027 -161.875 130.12109375 C-159.96524418 128.03473201 -159.96524418 128.03473201 -158.375 125.72265625 C-157.92125 125.15417969 -157.4675 124.58570313 -157 124 C-156.34 124 -155.68 124 -155 124 C-154.73195557 123.40525879 -154.46391113 122.81051758 -154.18774414 122.19775391 C-152.99020301 119.98187204 -151.79681017 118.57920472 -149.99609375 116.8359375 C-149.13274414 115.98902344 -149.13274414 115.98902344 -148.25195312 115.125 C-147.65318359 114.5475 -147.05441406 113.97 -146.4375 113.375 C-145.24650616 112.21839849 -144.05759995 111.05964222 -142.87109375 109.8984375 C-142.34443115 109.38974121 -141.81776855 108.88104492 -141.27514648 108.35693359 C-139.8835783 107.00599895 -139.8835783 107.00599895 -139 105 C-138.34 105 -137.68 105 -137 105 C-136.77570313 104.44957031 -136.55140625 103.89914063 -136.3203125 103.33203125 C-134.58906024 100.27416852 -132.37762275 98.15178174 -129.875 95.6875 C-129.3814502 95.20039551 -128.88790039 94.71329102 -128.37939453 94.21142578 C-125.01581588 90.91771699 -121.54079253 87.79602301 -117.9609375 84.7421875 C-115.71368115 82.7456211 -113.61105073 80.63987054 -111.5 78.5 C-107.49249289 74.45166939 -103.33335937 70.6935345 -99 67 C-98.00484375 66.13890625 -97.0096875 65.2778125 -95.984375 64.390625 C-82.96385758 53.13637569 -69.69981888 42.206675 -56.06347656 31.70556641 C-52.92492324 29.28748958 -49.81100524 26.86446546 -46.79296875 24.296875 C-44.27221554 22.22386397 -41.78380948 20.5045342 -39 18.8125 C-35.16067271 16.42659511 -31.4760031 13.92297022 -27.84008789 11.24414062 C-8.36358093 -3.07233585 -8.36358093 -3.07233585 0 0 Z " fill="#EB2B3A" transform="translate(349,152)"/>
<path d="M0 0 C2.32915776 1.8812428 2.90127894 3.41761577 3.625 6.3125 C3.34811259 10.74269863 2.34258055 13.80594445 -0.375 17.3125 C-2.27644422 18.86335255 -4.2229219 20.2938108 -6.2421875 21.6875 C-8.85961057 23.6817271 -11.05255446 25.98301674 -13.375 28.3125 C-15.14842141 29.79296684 -16.94052309 31.25132492 -18.75 32.6875 C-22.59620658 35.79741804 -26.17662474 38.97313399 -29.59936523 42.53833008 C-31.32968541 44.2672228 -33.12152745 45.84939593 -34.984375 47.43359375 C-39.84878255 51.66225142 -44.39241469 56.18315051 -48.9375 60.75 C-49.74896484 61.55759766 -50.56042969 62.36519531 -51.39648438 63.19726562 C-55.70852293 67.5162647 -59.86527201 71.90935325 -63.84448242 76.53686523 C-65.92493953 78.95051407 -68.08787709 81.28452015 -70.25 83.625 C-75.17077302 89.0274752 -79.8020049 94.61487581 -84.375 100.3125 C-85.29889449 101.44448786 -86.2234029 102.57597487 -87.1484375 103.70703125 C-101.97873758 121.92767739 -115.48691629 141.30459206 -128.02001953 161.16943359 C-129.00957978 162.73454348 -130.00332572 164.29700916 -130.99951172 165.85791016 C-143.16976414 184.93388669 -154.18828556 204.53460701 -164.9375 224.4375 C-167.07985846 228.39772608 -169.22626846 232.3557286 -171.375 236.3125 C-172.22505615 237.88233643 -172.22505615 237.88233643 -173.09228516 239.48388672 C-174.79836947 242.62168366 -176.52179314 245.74934358 -178.25 248.875 C-178.76119385 249.82068848 -179.2723877 250.76637695 -179.79907227 251.74072266 C-184.97905081 261.03226192 -191.11006346 267.79309319 -201.375 271.3125 C-208.6159361 272.8417857 -214.27504741 270.62858634 -220.6171875 267.125 C-235.14617497 257.5762037 -239.70471804 237.27213725 -244.8125 221.6875 C-246.05354664 217.92190067 -247.30196934 214.15886733 -248.55859375 210.3984375 C-248.86437347 209.48189392 -249.1701532 208.56535034 -249.48519897 207.62103271 C-252.02317826 200.12101725 -254.88638582 192.77561512 -257.91514587 185.46102905 C-258.23713455 184.68063263 -258.55912323 183.90023621 -258.89086914 183.09619141 C-259.177892 182.41118561 -259.46491486 181.72617981 -259.76063538 181.02041626 C-260.375 179.3125 -260.375 179.3125 -260.375 177.3125 C-261.035 176.9825 -261.695 176.6525 -262.375 176.3125 C-263.06616211 174.58227539 -263.06616211 174.58227539 -263.71484375 172.34765625 C-265.33350029 167.22241669 -267.51328679 162.53886112 -269.9375 157.75 C-270.37513672 156.8822998 -270.81277344 156.01459961 -271.26367188 155.12060547 C-287.18165363 124.06460029 -310.54562276 95.59085202 -337.375 73.3125 C-337.94911621 72.83522461 -338.52323242 72.35794922 -339.11474609 71.86621094 C-346.23654575 65.96361795 -353.36108246 60.20027252 -361.00390625 54.98046875 C-378.17987805 42.89786585 -378.17987805 42.89786585 -381.375 33.3125 C-381.41454234 30.97950175 -381.41901732 28.64541811 -381.375 26.3125 C-375.32063737 26.81685333 -370.5960662 28.17873494 -365.08203125 30.671875 C-363.91859695 31.18277428 -363.91859695 31.18277428 -362.73165894 31.70399475 C-360.21232538 32.81337703 -357.69994987 33.93762601 -355.1875 35.0625 C-353.43046543 35.84027556 -351.67305569 36.61720411 -349.9152832 37.39331055 C-345.53560023 39.33027052 -341.16163287 41.27975019 -336.78967285 43.23406982 C-333.91820035 44.51651377 -331.04399135 45.7927242 -328.16950989 47.06840515 C-321.68404045 49.94759429 -315.21238475 52.85654663 -308.74951172 55.78613281 C-305.30713362 57.34319748 -301.85871367 58.88636504 -298.41015625 60.4296875 C-285.93521113 66.05331074 -273.96111898 72.01873151 -262.375 79.3125 C-261.88 77.8275 -261.88 77.8275 -261.375 76.3125 C-261.16488281 77.18777344 -260.95476562 78.06304687 -260.73828125 78.96484375 C-259.11353672 82.95454593 -256.77005746 85.15613932 -253.5625 87.875 C-252.51335737 88.79186507 -251.46517127 89.70982589 -250.41796875 90.62890625 C-249.90250488 91.07782227 -249.38704102 91.52673828 -248.85595703 91.98925781 C-246.6008903 94.00417072 -244.49626101 96.15814599 -242.375 98.3125 C-241.37143812 99.29595377 -240.36613537 100.27763327 -239.359375 101.2578125 C-232.54043839 107.93833613 -226.24444812 114.76740401 -220.375 122.3125 C-219.2360486 123.75810528 -218.09669315 125.20339228 -216.95703125 126.6484375 C-210.87602386 134.38694869 -204.84661293 142.12565058 -199.375 150.3125 C-195.0473383 148.74066061 -192.68719067 145.3902273 -189.875 141.9375 C-185.33592813 136.49286535 -180.5991917 131.40064028 -175.53637695 126.44311523 C-172.1705325 123.13859974 -169.03275718 119.71890361 -165.96875 116.13671875 C-163.27527837 113.05375 -160.50642028 109.95644325 -157.375 107.3125 C-156.715 107.3125 -156.055 107.3125 -155.375 107.3125 C-155.12105469 106.72082031 -154.86710938 106.12914062 -154.60546875 105.51953125 C-153.23946788 103.0694027 -151.84563789 101.7765418 -149.6875 100 C-146.96314836 97.69780014 -144.36838129 95.3632004 -141.875 92.8125 C-138.21241605 89.10064362 -134.34137933 85.69519809 -130.375 82.3125 C-129.43914062 81.51070313 -128.50328125 80.70890625 -127.5390625 79.8828125 C-107.99474332 63.20014182 -87.85200098 47.4435902 -66.66894531 32.88916016 C-65.24912547 31.91329846 -63.83137795 30.93440476 -62.41699219 29.95068359 C-51.39073152 22.28375302 -39.82757631 15.55067257 -28.1640625 8.90429688 C-26.42586863 7.91226046 -24.69088978 6.91454268 -22.9609375 5.90820312 C-20.94158949 4.73386902 -18.91152018 3.58171398 -16.875 2.4375 C-15.7921875 1.82132813 -14.709375 1.20515625 -13.59375 0.5703125 C-9.01165753 -1.22026247 -4.79524024 -1.38809586 0 0 Z " fill="#2478B4" transform="translate(961.375,188.6875)"/>
<path d="M0 0 C10.97626516 11.38742819 13.83880981 25.72468588 13.60546875 40.91015625 C13.17740283 53.71536736 7.97737889 65.92284968 -0.6015625 75.48828125 C-1.2615625 75.48828125 -1.9215625 75.48828125 -2.6015625 75.48828125 C-2.6015625 76.14828125 -2.6015625 76.80828125 -2.6015625 77.48828125 C-13.1067349 87.02504096 -27.85861517 93.09408438 -42.1640625 92.671875 C-58.56573802 91.43649239 -70.93120195 85.64596922 -82.3515625 73.80078125 C-92.76841843 61.29070368 -94.70821307 46.12748176 -93.6015625 30.48828125 C-91.61214359 15.07446413 -83.79471849 2.78228054 -71.6640625 -6.82421875 C-48.10693813 -23.35635574 -20.69481834 -18.9857868 0 0 Z " fill="#267CB8" transform="translate(816.6015625,166.51171875)"/>
<path d="M0 0 C0.65355469 0.52335938 1.30710937 1.04671875 1.98046875 1.5859375 C3.00720703 2.37097656 3.00720703 2.37097656 4.0546875 3.171875 C15.55437902 12.50305326 21.24483585 25.10090245 22.98046875 39.5859375 C24.38917102 53.52467578 19.53255334 66.7975205 11.23046875 77.7734375 C2.41332412 88.28492149 -10.19024627 96.30427684 -24.04077148 97.80493164 C-40.01397629 98.72887381 -53.86008654 94.89101584 -66.14453125 84.3984375 C-76.72284253 74.44334456 -83.38614877 61.95800863 -84.13671875 47.296875 C-84.54915704 32.49492306 -79.6171912 19.7724718 -70.01953125 8.5859375 C-69.39175781 7.74933594 -68.76398438 6.91273438 -68.1171875 6.05078125 C-51.67872106 -13.26518211 -19.61002467 -14.4959657 0 0 Z " fill="#ED2D3C" transform="translate(185.01953125,157.4140625)"/>
<path d="M0 0 C4.08703297 1.3387335 6.17353712 2.92000328 8.9375 6.1875 C9.70964844 7.07953125 10.48179688 7.9715625 11.27734375 8.890625 C11.70515137 9.38498047 12.13295898 9.87933594 12.57373047 10.38867188 C14.71926969 12.81259499 16.94876122 15.15464691 19.1730957 17.50610352 C24.64706015 23.29315854 29.8846265 29.16297687 34.859375 35.390625 C37.92966269 39.13323846 41.22282766 42.65735605 44.50390625 46.21484375 C47.85281616 49.95157734 50.97869091 53.8496326 54.08984375 57.78515625 C55.98687169 60.18467032 55.98687169 60.18467032 59 62 C59.24878906 61.44183594 59.49757812 60.88367188 59.75390625 60.30859375 C61.21614398 57.5995577 62.96844013 55.4303568 64.9375 53.0625 C65.7315625 52.10472656 66.525625 51.14695312 67.34375 50.16015625 C70.66447239 46.1986147 74.00673966 42.25480403 77.36889648 38.32836914 C79.39844805 35.94834903 81.26212387 33.6068142 83 31 C84.485 31.495 84.485 31.495 86 32 C85.26136719 32.84820312 84.52273437 33.69640625 83.76171875 34.5703125 C78.36114906 40.80270437 73.04381594 47.08572937 67.9375 53.5625 C67.48528076 54.13307129 67.03306152 54.70364258 66.56713867 55.29150391 C64.13101754 58.40778378 61.95361947 61.56034867 60 65 C55.79270963 63.63925049 53.62634571 61.89160383 50.75 58.5625 C49.57824219 57.21478516 49.57824219 57.21478516 48.3828125 55.83984375 C45.33535765 52.20787707 42.35352314 48.52523743 39.37109375 44.83984375 C36.45566482 41.34805325 33.38685732 38.01517796 30.29077148 34.68530273 C26.81945713 30.93623535 23.48633428 27.08865413 20.1875 23.1875 C15.10383849 17.17869151 9.79341252 11.41109382 4.36791992 5.7097168 C0 1.09978633 0 1.09978633 0 0 Z " fill="#EE1C26" transform="translate(99,256)"/>
<path d="M0 0 C0.33 0 0.66 0 1 0 C1.20302734 0.94359375 1.20302734 0.94359375 1.41015625 1.90625 C3.87867425 11.72119581 9.26438944 17.18150174 17.49609375 22.7734375 C17.99238281 23.17820313 18.48867188 23.58296875 19 24 C19 24.66 19 25.32 19 26 C19.53625 26.2475 20.0725 26.495 20.625 26.75 C26.58047079 29.88445831 31.69354314 34.06098538 36.875 38.3125 C37.94161865 39.18406738 37.94161865 39.18406738 39.02978516 40.07324219 C43.76967243 43.95875254 48.44546649 47.89803113 53 52 C53.78503906 52.69351563 54.57007813 53.38703125 55.37890625 54.1015625 C65.9698921 63.51217894 75.95214287 73.29402599 84 85 C81 85 81 85 79.4921875 83.6015625 C78.95851563 82.94929688 78.42484375 82.29703125 77.875 81.625 C77.25625 80.88894531 76.6375 80.15289062 76 79.39453125 C75.01 78.20923828 75.01 78.20923828 74 77 C64.74215282 66.3498594 54.8972918 55.99343882 44 47 C43.14317627 46.2884375 43.14317627 46.2884375 42.26904297 45.5625 C35.14422502 39.65679785 28.01750739 33.89022427 20.37109375 28.66796875 C3.19512195 16.58536585 3.19512195 16.58536585 0 7 C-0.03954234 4.66700175 -0.04401732 2.33291811 0 0 Z " fill="#266893" transform="translate(580,215)"/>
<path d="M0 0 C5.95032267 0.36034563 9.24728541 3.00157539 13.75 6.5625 C14.80888428 7.38004761 14.80888428 7.38004761 15.88916016 8.21411133 C17.93485274 9.79857535 19.96824005 11.39773472 22 13 C22.96164062 13.74507812 23.92328125 14.49015625 24.9140625 15.2578125 C39.74048869 26.88361336 54.4937538 40.2406307 65 56 C64.67 56.99 64.34 57.98 64 59 C62.99406757 57.8803014 61.9954151 56.7540588 61 55.625 C60.1646875 54.68527344 60.1646875 54.68527344 59.3125 53.7265625 C58 52 58 52 58 50 C57.34 50 56.68 50 56 50 C54.80078125 48.55859375 54.80078125 48.55859375 53.3125 46.4375 C44.01508846 34.18883542 32.32595195 24.08001877 20 15 C19.34370605 14.5148291 18.68741211 14.0296582 18.01123047 13.52978516 C14.77657896 11.14257993 11.53282213 8.76886266 8.27734375 6.41015625 C5.45172506 4.35300098 2.71009964 2.20803959 0 0 Z " fill="#FCB21B" transform="translate(625,185)"/>
<path d="M0 0 C1 3 1 3 -0.07299805 5.56176758 C-0.63027588 6.57907959 -1.18755371 7.5963916 -1.76171875 8.64453125 C-2.6897229 10.35660767 -2.6897229 10.35660767 -3.63647461 12.10327148 C-4.31987572 13.33983247 -5.0035572 14.57623854 -5.6875 15.8125 C-6.3792074 17.07903327 -7.07003708 18.34604627 -7.76000977 19.61352539 C-9.16098731 22.18370989 -10.56751261 24.7507361 -11.97851562 27.31542969 C-13.80059361 30.63035413 -15.59949182 33.95729675 -17.390625 37.2890625 C-20.22113478 42.54820308 -23.09262924 47.78298363 -26 53 C-26.56557617 54.02262939 -26.56557617 54.02262939 -27.14257812 55.06591797 C-32.15972508 64.04919812 -37.47039484 70.78277518 -46.4375 76 C-51.03766356 77.29127398 -55.25682214 77.25767767 -60 77 C-60 76.34 -60 75.68 -60 75 C-58.74896484 74.88785156 -58.74896484 74.88785156 -57.47265625 74.7734375 C-49.68025198 73.86298477 -43.64588118 72.67742242 -38 67 C-28.20275786 54.41638625 -20.89019006 39.09967525 -13.9375 24.8125 C-9.78041533 16.2848248 -4.80959192 8.17091378 0 0 Z " fill="#256793" transform="translate(810,383)"/>
<path d="M0 0 C21.15745323 20.56974619 34.21835568 51.07799224 44.6875 78.1875 C44.9438623 78.84089355 45.20022461 79.49428711 45.46435547 80.16748047 C47.12143438 84.63569687 47.12143438 84.63569687 46 88 C43.68624524 82.88130232 41.44017884 77.73531556 39.25 72.5625 C38.82203125 71.55316406 38.3940625 70.54382813 37.953125 69.50390625 C37 67 37 67 37 65 C36.01 64.505 36.01 64.505 35 64 C34.30883789 62.26977539 34.30883789 62.26977539 33.66015625 60.03515625 C32.04149971 54.90991669 29.86171321 50.22636112 27.4375 45.4375 C26.78104492 44.13594971 26.78104492 44.13594971 26.11132812 42.80810547 C20.10969398 31.09890867 13.09240176 20.14016948 5.22265625 9.60205078 C2.94533003 6.51739375 1.24055833 3.63402685 0 0 Z " fill="#266691" transform="translate(664,301)"/>
<path d="M0 0 C0.43570313 0.37511719 0.87140625 0.75023437 1.3203125 1.13671875 C1.91585937 1.64847656 2.51140625 2.16023438 3.125 2.6875 C3.76695312 3.24050781 4.40890625 3.79351562 5.0703125 4.36328125 C6.68599905 5.73367126 8.33893054 7.05998668 10 8.375 C13.05875915 11.05141425 15.59509746 13.88513094 18.22265625 16.97265625 C19.86880511 18.85035132 21.57735116 20.58127698 23.375 22.3125 C27.98740406 26.87399452 31.98167294 31.91783409 36 37 C36.55204102 37.69689941 37.10408203 38.39379883 37.67285156 39.11181641 C39.51662411 41.44523185 41.35330273 43.78405174 43.1875 46.125 C43.76959229 46.86468018 44.35168457 47.60436035 44.95141602 48.36645508 C47.88737005 52.13588433 50.74560009 55.95449612 53.48828125 59.8671875 C53.99528564 60.5876123 54.50229004 61.30803711 55.0246582 62.05029297 C55.346521 62.69369629 55.66838379 63.33709961 56 64 C55.505 65.485 55.505 65.485 55 67 C54.44054687 66.19820313 53.88109375 65.39640625 53.3046875 64.5703125 C43.32541244 50.37572716 32.86378343 36.67461755 21 24 C19.76456733 22.58879439 18.53489115 21.17251714 17.3125 19.75 C12.94046635 14.74315116 8.63529987 9.99032366 3.0625 6.3125 C1.5465625 5.1678125 1.5465625 5.1678125 0 4 C0 2.68 0 1.36 0 0 Z " fill="#216694" transform="translate(705,274)"/>
<path d="M0 0 C0.33 0 0.66 0 1 0 C1.00410889 0.56283691 1.00821777 1.12567383 1.01245117 1.70556641 C1.23888936 19.48368146 3.34331161 33.41475074 16 47 C24.33556613 54.44679817 34.28512932 57.57399154 45 60 C45 60.33 45 60.66 45 61 C34.81282309 61.84893141 26.72450506 58.38014675 18.6875 52.1875 C8.38549947 43.31953794 0.2462269 31.97408529 -1 18 C-1.23679918 12.33324512 -1.27187575 6.66513181 -1 1 C-0.67 0.67 -0.34 0.34 0 0 Z " fill="#2C698F" transform="translate(724,196)"/>
<path d="M0 0 C15.42763816 15.09645452 27.76144491 33.31471954 40 51 C40.40605469 51.5784668 40.81210937 52.15693359 41.23046875 52.75292969 C44 56.76875 44 56.76875 44 59 C43.34 59 42.68 59 42 59 C40.22998304 56.61577202 38.57159051 54.22521153 36.9375 51.75 C35.93945024 50.26821581 34.93943015 48.78775692 33.9375 47.30859375 C33.43992188 46.57366699 32.94234375 45.83874023 32.4296875 45.08154297 C29.12034806 40.26333463 25.55603966 35.637772 22 31 C21.22140625 29.97648437 20.4428125 28.95296875 19.640625 27.8984375 C16.05355951 23.19782273 12.44423728 18.52574183 8.69921875 13.94921875 C8.14661377 13.27093018 7.59400879 12.5926416 7.0246582 11.89379883 C5.94238337 10.56934558 4.85386305 9.24996624 3.75854492 7.9362793 C0 3.33247883 0 3.33247883 0 0 Z " fill="#EE202A" transform="translate(12,203)"/>
<path d="M0 0 C3.10086597 3.51784171 4.33229086 7.45064825 5.70703125 11.84375 C6.21674 13.4166851 6.72650759 14.98960113 7.23632812 16.5625 C8.0221444 19.01863272 8.80479632 21.47573768 9.58520508 23.93359375 C16.13393361 45.98457587 16.13393361 45.98457587 31.2890625 62.44140625 C33.14951646 63.38478132 35.07044204 64.20750298 37 65 C34.49032217 65.94042104 33.39532115 66.16806629 30.88671875 65.1015625 C12.70720644 52.89577981 7.94755573 29.64076402 1.6875 9.84765625 C1.36136719 8.81648682 1.03523437 7.78531738 0.69921875 6.72290039 C0 4 0 4 0 0 Z " fill="#26638D" transform="translate(712,392)"/>
<path d="M0 0 C0.99 0.33 1.98 0.66 3 1 C2.59386475 1.37584229 2.18772949 1.75168457 1.76928711 2.13891602 C-16.38070417 18.77866572 -16.38070417 18.77866572 -33.10546875 36.81640625 C-35.96982923 40.11780317 -38.95864819 43.30200969 -41.9375 46.5 C-42.82719482 47.45531616 -42.82719482 47.45531616 -43.73486328 48.42993164 C-45.15567293 49.95412963 -46.57770803 51.47718514 -48 53 C-48.495 51.515 -48.495 51.515 -49 50 C-46.6875 46.8125 -46.6875 46.8125 -44 44 C-43.34 44 -42.68 44 -42 44 C-41.73195557 43.40525879 -41.46391113 42.81051758 -41.18774414 42.19775391 C-39.99020301 39.98187204 -38.79681017 38.57920472 -36.99609375 36.8359375 C-36.42052734 36.27132812 -35.84496094 35.70671875 -35.25195312 35.125 C-34.65318359 34.5475 -34.05441406 33.97 -33.4375 33.375 C-32.24650616 32.21839849 -31.05759995 31.05964222 -29.87109375 29.8984375 C-29.34443115 29.38974121 -28.81776855 28.88104492 -28.27514648 28.35693359 C-26.8835783 27.00599895 -26.8835783 27.00599895 -26 25 C-25.34 25 -24.68 25 -24 25 C-23.66355469 24.17435547 -23.66355469 24.17435547 -23.3203125 23.33203125 C-21.58906024 20.27416852 -19.37762275 18.15178174 -16.875 15.6875 C-16.38580078 15.20474609 -15.89660156 14.72199219 -15.39257812 14.22460938 C-11.92565311 10.83019521 -8.35855177 7.57504387 -4.65625 4.4375 C-3.02723284 3.02363605 -1.50628283 1.54302144 0 0 Z " fill="#EF1B25" transform="translate(236,232)"/>
<path d="M0 0 C-3.04325601 2.48505499 -6.02759938 3.99962674 -9.65625 5.48828125 C-10.76226562 5.94783203 -11.86828125 6.40738281 -13.0078125 6.88085938 C-14.16023438 7.35330078 -15.31265625 7.82574219 -16.5 8.3125 C-27.39396819 12.7890444 -38.31138464 17.2837658 -48.125 23.875 C-52.79220779 27 -52.79220779 27 -55 27 C-54.85864258 25.21191406 -54.85864258 25.21191406 -54 23 C-51.54174805 21.29589844 -51.54174805 21.29589844 -48.26171875 19.609375 C-47.37870842 19.15024467 -47.37870842 19.15024467 -46.4778595 18.68183899 C-44.55525046 17.68902777 -42.62247191 16.71846869 -40.6875 15.75 C-39.36456751 15.0774237 -38.04165091 14.40481615 -36.71875 13.73217773 C-29.09978012 9.88980566 -21.41708826 6.25627808 -13.5 3.0625 C-12.70166748 2.73926758 -11.90333496 2.41603516 -11.08081055 2.08300781 C-7.26668924 0.61613414 -4.15775237 -0.40422592 0 0 Z " fill="#FEB01D" transform="translate(396,158)"/>
<path d="M0 0 C0.66 0.33 1.32 0.66 2 1 C1.09757568 1.8971875 0.19515137 2.794375 -0.73461914 3.71875 C-4.11238386 7.07828482 -7.48673165 10.44123444 -10.86010742 13.80517578 C-12.31492017 15.25498917 -13.77063283 16.70390017 -15.22729492 18.15185547 C-17.33234551 20.24464643 -19.43403619 22.34076374 -21.53515625 24.4375 C-22.49809349 25.39269531 -22.49809349 25.39269531 -23.48048401 26.3671875 C-27.29551903 30.18175784 -30.92222122 34.10904016 -34.44317627 38.19696045 C-36.80386736 40.93100113 -39.24304007 43.59099035 -41.6875 46.25 C-42.14705078 46.75273437 -42.60660156 47.25546875 -43.08007812 47.7734375 C-45.65748402 50.58247901 -48.28210183 53.32665753 -51 56 C-50.43928229 52.05688837 -48.55781148 50.10560273 -45.875 47.25 C-45.05773437 46.36957031 -44.24046875 45.48914063 -43.3984375 44.58203125 C-42.60695313 43.72996094 -41.81546875 42.87789063 -41 42 C-39.82774915 40.65066445 -38.66054449 39.29691714 -37.5 37.9375 C-34.2381601 34.184874 -30.73358672 30.71686012 -27.1953125 27.2265625 C-25.16776119 25.17014925 -23.25870439 23.06280017 -21.375 20.875 C-14.69245511 13.1176402 -14.69245511 13.1176402 -11 10 C-10.34 10 -9.68 10 -9 10 C-8.61714844 9.11054688 -8.61714844 9.11054688 -8.2265625 8.203125 C-6.88183502 5.78775462 -5.50785633 4.48788294 -3.375 2.75 C-2.74335937 2.22921875 -2.11171875 1.7084375 -1.4609375 1.171875 C-0.73777344 0.59179688 -0.73777344 0.59179688 0 0 Z " fill="#236A99" transform="translate(815,286)"/>
<path d="M0 0 C10.2567992 0.96762257 19.54522115 4.0159108 29 8 C30.76868361 8.73436571 32.53950181 9.46361317 34.3125 10.1875 C35.48232422 10.67283203 35.48232422 10.67283203 36.67578125 11.16796875 C39.10068304 12.03604284 41.4660444 12.55599716 44 13 C44 13.66 44 14.32 44 15 C44.78375 15.12375 45.5675 15.2475 46.375 15.375 C49 16 49 16 51 18 C46.77637315 17.47204664 43.14471379 16.39663354 39.21704102 14.84814453 C37.18377389 14.07030399 35.14621954 13.3623594 33.078125 12.68359375 C26.8941115 10.63685732 20.7261342 8.54475475 14.5625 6.4375 C13.37978516 6.03853516 12.19707031 5.63957031 10.97851562 5.22851562 C9.85251953 4.84244141 8.72652344 4.45636719 7.56640625 4.05859375 C6.03415405 3.53736938 6.03415405 3.53736938 4.47094727 3.00561523 C2 2 2 2 0 0 Z " fill="#F3B822" transform="translate(547,202)"/>
<path d="M0 0 C4.33960515 0.46606738 6.81901948 3.29952665 9.8125 6.1875 C10.96742534 7.27866973 12.12237424 8.36981452 13.27734375 9.4609375 C13.88175293 10.03682617 14.48616211 10.61271484 15.10888672 11.20605469 C17.04092933 13.03882633 18.98832055 14.85374481 20.94140625 16.6640625 C21.59713623 17.2722583 22.25286621 17.8804541 22.9284668 18.50708008 C24.18900331 19.67623442 25.44958014 20.8453453 26.71020508 22.0144043 C30.89935936 25.9200345 34.97444958 29.92610614 39 34 C38.67 34.99 38.34 35.98 38 37 C37.33581055 36.32795532 37.33581055 36.32795532 36.65820312 35.64233398 C34.60823317 33.57129904 32.55414567 31.50439303 30.5 29.4375 C29.80390625 28.73302734 29.1078125 28.02855469 28.390625 27.30273438 C24.31909172 23.21235141 20.14932438 19.31834879 15.77685547 15.55200195 C13.5245745 13.58473758 11.40914583 11.50652533 9.3125 9.375 C8.56742188 8.62089844 7.82234375 7.86679688 7.0546875 7.08984375 C6.37664063 6.40019531 5.69859375 5.71054688 5 5 C3.98035299 3.97798172 2.95977621 2.95688842 1.9375 1.9375 C1.298125 1.298125 0.65875 0.65875 0 0 Z " fill="#EE1D29" transform="translate(57,216)"/>
<path d="M0 0 C3.3843805 4.02854428 3.4675203 7.39340821 3.375 12.5 C3.3586853 13.70885864 3.3586853 13.70885864 3.34204102 14.94213867 C2.97596326 28.77435201 -1.64074166 41.56452304 -11 52 C-11.66 52 -12.32 52 -13 52 C-13 52.66 -13 53.32 -13 54 C-14.98 54.495 -14.98 54.495 -17 55 C-16.175 54.13375 -15.35 53.2675 -14.5 52.375 C-11.52246543 48.88824337 -9.11774573 45.13919679 -6.8125 41.1875 C-6.15894531 40.06730469 -5.50539063 38.94710937 -4.83203125 37.79296875 C-0.38205497 29.11452405 0.41619736 21.02720151 0.1875 11.375 C0.17396484 10.27542969 0.16042969 9.17585937 0.14648438 8.04296875 C0.111508 5.36144668 0.06243072 2.68099927 0 0 Z " fill="#226999" transform="translate(827,190)"/>
<path d="M0 0 C0.33 0.99 0.66 1.98 1 3 C-0.1875 5.09375 -0.1875 5.09375 -2 7.5 C-7.44439006 14.79159383 -12.13475555 22.57638141 -16.89453125 30.32421875 C-17.53970703 31.37158203 -18.18488281 32.41894531 -18.84960938 33.49804688 C-20.18275194 35.66423774 -21.51070221 37.83363096 -22.83398438 40.00585938 C-23.47271484 41.03904297 -24.11144531 42.07222656 -24.76953125 43.13671875 C-25.34292236 44.07217529 -25.91631348 45.00763184 -26.50708008 45.97143555 C-26.99974365 46.64086182 -27.49240723 47.31028809 -28 48 C-28.66 48 -29.32 48 -30 48 C-28.29170922 43.04299438 -25.5633208 38.8024984 -22.8125 34.375 C-22.31564697 33.57030273 -21.81879395 32.76560547 -21.30688477 31.93652344 C-19.87522667 29.62185828 -18.43782919 27.31083448 -17 25 C-16.04480469 23.44925781 -16.04480469 23.44925781 -15.0703125 21.8671875 C-10.37628297 14.34326456 -5.20541109 7.17445995 0 0 Z " fill="#236896" transform="translate(845,328)"/>
<path d="M0 0 C2.80424643 2.27010425 3.73198147 4.77043938 5.07421875 8.046875 C11.20039079 20.9712886 23.24033231 27.97757761 36 33 C36 33.33 36 33.66 36 34 C27.0302844 34.51143115 20.34355817 29.40880069 13.75 23.75 C8.12212071 18.45369959 0.24595773 10.41106998 -0.125 2.25 C-0.063125 1.13625 -0.063125 1.13625 0 0 Z " fill="#ED1E29" transform="translate(105,218)"/>
<path d="M0 0 C11.26651316 0.42515144 19.57813979 6.79979077 27.546875 14.3359375 C31.09978434 18.19435178 33.64970403 22.33216479 36 27 C36.37769531 27.69867188 36.75539063 28.39734375 37.14453125 29.1171875 C38.22663177 31.49879686 38.14360659 33.41508144 38 36 C35.98565255 32.97847882 34.36283472 29.90815454 32.6875 26.6875 C25.80285438 13.78566346 16.09018418 6.65334255 2.375 1.6875 C1.59125 1.460625 0.8075 1.23375 0 1 C0 0.67 0 0.34 0 0 Z " fill="#266C9C" transform="translate(789,152)"/>
<path d="M0 0 C0.33 0.99 0.66 1.98 1 3 C-0.29377031 5.21921844 -1.62997674 7.23382987 -3.125 9.3125 C-8.43719191 16.93328844 -13.11290199 24.86629624 -17.70751953 32.93676758 C-18.23716309 33.85353271 -18.76680664 34.77029785 -19.3125 35.71484375 C-19.78300781 36.54105225 -20.25351563 37.36726074 -20.73828125 38.21850586 C-21.15464844 38.80639893 -21.57101563 39.39429199 -22 40 C-22.66 40 -23.32 40 -24 40 C-18.78361409 25.98582889 -9.17700945 11.76852375 0 0 Z " fill="#ED1C24" transform="translate(254,285)"/>
<path d="M0 0 C9.24708335 0.73976667 14.26457065 5.96325435 21.1640625 11.671875 C25.04854485 14.86078888 29.01418028 17.93928411 33 21 C32.505 22.485 32.505 22.485 32 24 C30.39583333 22.6875 28.79166667 21.375 27.1875 20.0625 C26.18976562 19.2478125 25.19203125 18.433125 24.1640625 17.59375 C22.08744531 15.89551581 20.02232513 14.18568983 17.9609375 12.46875 C17.00445312 11.6746875 16.04796875 10.880625 15.0625 10.0625 C14.18722656 9.33160156 13.31195313 8.60070312 12.41015625 7.84765625 C7.61939143 4.17499538 3.90396436 3.59039644 -2 3 C-1.34 2.01 -0.68 1.02 0 0 Z " fill="#EE1D27" transform="translate(16,185)"/>
<path d="M0 0 C0.99 0.33 1.98 0.66 3 1 C2.39115967 1.38220703 1.78231934 1.76441406 1.1550293 2.15820312 C-9.45194824 8.82882905 -19.9830739 15.46363594 -30 23 C-35.58857143 27 -35.58857143 27 -38 27 C-38 26.34 -38 25.68 -38 25 C-36.234375 23.5546875 -36.234375 23.5546875 -33.75 21.875 C-32.83839111 21.25496094 -31.92678223 20.63492188 -30.98754883 19.99609375 C-30.00165771 19.33738281 -29.0157666 18.67867187 -28 18 C-27.00572998 17.33097656 -26.01145996 16.66195312 -24.98706055 15.97265625 C-21.99862618 13.97059976 -19.00145861 11.98246669 -16 10 C-15.1538916 9.43925781 -14.3077832 8.87851563 -13.43603516 8.30078125 C-11.23735679 6.85232606 -9.02865705 5.42152742 -6.8125 4 C-6.16087891 3.57332031 -5.50925781 3.14664063 -4.83789062 2.70703125 C-3.01953125 1.5625 -3.01953125 1.5625 0 0 Z " fill="#236C9E" transform="translate(919,206)"/>
<path d="M0 0 C6.50735813 -0.36834103 6.50735813 -0.36834103 8.6875 1.26171875 C10.7354504 3.97403401 10.71897087 6.07685435 10.60546875 9.40625 C9.34122789 14.82209471 5.51530775 18.83415143 2 23 C1.27167969 23.87914062 0.54335938 24.75828125 -0.20703125 25.6640625 C-5.47927461 31.82642487 -5.47927461 31.82642487 -9 33 C-8.66637484 29.88616521 -8.07888595 29.06643028 -5.625 27 C-4.75875 26.34 -3.8925 25.68 -3 25 C-2.443125 24.2575 -1.88625 23.515 -1.3125 22.75 C-0.879375 22.1725 -0.44625 21.595 0 21 C0.66 21 1.32 21 2 21 C2.268125 20.46375 2.53625 19.9275 2.8125 19.375 C3.70035204 17.59929591 4.64811995 15.85332625 5.625 14.125 C7.11622551 10.73585112 7.40644739 8.65802651 7 5 C5.33045181 1.77595022 5.33045181 1.77595022 2.375 1.3125 C1.199375 1.1578125 1.199375 1.1578125 0 1 C0 0.67 0 0.34 0 0 Z " fill="#F23229" transform="translate(344,153)"/>
<path d="M0 0 C0.99 0.33 1.98 0.66 3 1 C2.03900391 1.69222656 2.03900391 1.69222656 1.05859375 2.3984375 C-11.29832325 11.71676835 -17.41153513 23.21117507 -21 38 C-21.33 38 -21.66 38 -22 38 C-22.90857977 28.55077036 -19.16417465 20.46768273 -13.4375 13.0625 C-12.29850368 11.70257766 -11.15352149 10.34762367 -10 9 C-9.319375 8.071875 -8.63875 7.14375 -7.9375 6.1875 C-5.55355835 3.49595298 -3.14207655 1.73817001 0 0 Z " fill="#F01D27" transform="translate(125,157)"/>
<path d="M0 0 C-0.99 0.49628906 -1.98 0.99257812 -3 1.50390625 C-17.46778645 8.88621522 -26.0899193 16.96041259 -33 32 C-34.16175478 29.18908756 -34.06730314 28.16261003 -32.8828125 25.30078125 C-26.45031271 14.36553161 -19.2483312 6.92528673 -8 1 C-6.98873047 0.39478516 -6.98873047 0.39478516 -5.95703125 -0.22265625 C-3.56110498 -1.17433156 -2.3868561 -0.85244861 0 0 Z " fill="#296A96" transform="translate(761,154)"/>
<path d="M0 0 C2.43031167 2.43031167 3.47457576 4.93480985 4.90234375 8.02734375 C6.78237095 11.40604032 8.31251255 12.77083752 12 14 C18.99796837 14.67013512 23.51607531 14.49963051 29 10 C29.66 10 30.32 10 31 10 C30.02903542 12.81579728 29.0441061 13.96750077 26.625 15.75 C20.26343946 17.94364156 13.74486601 18.24766637 7.5625 15.4375 C3.4675943 11.5423458 0.21359978 8.34959757 -0.3125 2.5625 C-0.209375 1.716875 -0.10625 0.87125 0 0 Z " fill="#E6272F" transform="translate(131,432)"/>
<path d="M0 0 C12.43597209 0.46059156 21.49034169 9.09679467 29.625 17.8125 C30.305625 18.8953125 30.305625 18.8953125 31 20 C30.67 20.99 30.34 21.98 30 23 C29.32195312 22.20335937 28.64390625 21.40671875 27.9453125 20.5859375 C19.79578819 11.22328227 11.51652117 5.72900628 0 1 C0 0.67 0 0.34 0 0 Z " fill="#EC202B" transform="translate(168,151)"/>
<path d="M0 0 C2.03833424 1.2739589 4.03852126 2.61061923 6 4 C6 4.66 6 5.32 6 6 C7.0209375 6.38671875 7.0209375 6.38671875 8.0625 6.78125 C12.0930365 8.45349387 15.94508143 10.45058646 19.828125 12.43359375 C23.16632111 14.12446265 26.50004365 15.67425896 30 17 C30 17.33 30 17.66 30 18 C19.25451366 17.78509027 9.08849379 11.58969737 1.2578125 4.578125 C0 3 0 3 0 0 Z " fill="#FEB51C" transform="translate(441,121)"/>
<path d="M0 0 C0.33 0.99 0.66 1.98 1 3 C0.51273438 3.50144531 0.02546875 4.00289063 -0.4765625 4.51953125 C-8.60147792 13.19103189 -17.66548644 23.33097288 -23 34 C-23.66 34 -24.32 34 -25 34 C-23.5508221 29.76096089 -21.44508608 26.70330942 -18.6875 23.1875 C-18.26033691 22.6406958 -17.83317383 22.0938916 -17.39306641 21.53051758 C-11.69536851 14.27420663 -5.84546262 7.13732819 0 0 Z " fill="#236794" transform="translate(879,283)"/>
<path d="M0 0 C6.72310541 0.43826069 11.96076602 3.09251667 17.9375 6.0625 C19.3925293 6.77116211 19.3925293 6.77116211 20.87695312 7.49414062 C23.25566373 8.65420146 25.62966099 9.82295355 28 11 C27.67 11.99 27.34 12.98 27 14 C8.65957447 5.42553191 8.65957447 5.42553191 0 1 C0 0.67 0 0.34 0 0 Z " fill="#FDB41D" transform="translate(581,162)"/>
<path d="M0 0 C4.5674856 4.12654437 7.54597346 8.73420313 10.6875 14 C11.17283203 14.7940625 11.65816406 15.588125 12.15820312 16.40625 C14.43685827 20.17781714 16.55664516 23.81342691 18 28 C14.50969164 26.83656388 14.24365925 26.22774394 12.44140625 23.17578125 C11.97283203 22.39396484 11.50425781 21.61214844 11.02148438 20.80664062 C10.54001953 19.98357422 10.05855469 19.16050781 9.5625 18.3125 C8.60655661 16.70378015 7.64954536 15.09569432 6.69140625 13.48828125 C6.23652832 12.71822754 5.78165039 11.94817383 5.31298828 11.15478516 C4.15331789 9.25161467 2.93223543 7.42865219 1.65234375 5.60546875 C0 3 0 3 0 0 Z " fill="#EC1C26" transform="translate(57,263)"/>
<path d="M0 0 C-3.71362526 3.71362526 -9.28286373 4.0972957 -14.359375 4.23046875 C-15.82298152 4.22655536 -17.28659657 4.21219331 -18.75 4.1875 C-19.49121094 4.18685547 -20.23242188 4.18621094 -20.99609375 4.18554688 C-24.49429144 4.15728495 -27.63527799 3.93542258 -31 3 C-31 2.34 -31 1.68 -31 1 C-30.43603516 1.01047363 -29.87207031 1.02094727 -29.29101562 1.03173828 C-26.69405719 1.07374478 -24.09717061 1.09946602 -21.5 1.125 C-20.613125 1.14175781 -19.72625 1.15851563 -18.8125 1.17578125 C-14.52594059 1.20730007 -10.6813523 1.06032435 -6.53125 -0.0703125 C-3 -1 -3 -1 0 0 Z " fill="#ED202A" transform="translate(173,251)"/>
<path d="M0 0 C0.33 0 0.66 0 1 0 C1.20302734 0.94359375 1.20302734 0.94359375 1.41015625 1.90625 C3.87867425 11.72119581 9.26438944 17.18150174 17.49609375 22.7734375 C17.99238281 23.17820313 18.48867188 23.58296875 19 24 C19 24.66 19 25.32 19 26 C20.32 26.66 21.64 27.32 23 28 C22.67 28.66 22.34 29.32 22 30 C2.95638821 15.86916462 2.95638821 15.86916462 0 7 C-0.03954234 4.66700175 -0.04401732 2.33291811 0 0 Z " fill="#367195" transform="translate(580,215)"/>
<path d="M0 0 C0.66 0.33 1.32 0.66 2 1 C-16.95882789 17.20437685 -16.95882789 17.20437685 -26 23 C-26 22.01 -26 21.02 -26 20 C-23.95846756 18.15778878 -21.94467081 16.51629902 -19.75 14.875 C-19.12335449 14.39506592 -18.49670898 13.91513184 -17.85107422 13.4206543 C-15.90819688 11.93692682 -13.95534444 10.46724564 -12 9 C-10.79932764 8.09264839 -9.59879992 7.18510535 -8.3984375 6.27734375 C-5.60797521 4.17270062 -2.80721033 2.0822714 0 0 Z " fill="#226B9C" transform="translate(871,239)"/>
<path d="M0 0 C1.05220515 2.68690918 1.07463611 3.79765709 0.05957031 6.54956055 C-0.42930664 7.48582275 -0.91818359 8.42208496 -1.421875 9.38671875 C-1.95296875 10.40701172 -2.4840625 11.42730469 -3.03125 12.47851562 C-3.5984375 13.53748047 -4.165625 14.59644531 -4.75 15.6875 C-5.57757813 17.29334961 -5.57757813 17.29334961 -6.421875 18.93164062 C-10.61003222 26.87001074 -10.61003222 26.87001074 -14 28 C-12.63968002 24.48270857 -11.11816674 21.10780042 -9.43359375 17.734375 C-8.94826172 16.76242187 -8.46292969 15.79046875 -7.96289062 14.7890625 C-7.20782227 13.28472656 -7.20782227 13.28472656 -6.4375 11.75 C-5.67663086 10.22246094 -5.67663086 10.22246094 -4.90039062 8.6640625 C-4.41634766 7.69726562 -3.93230469 6.73046875 -3.43359375 5.734375 C-2.76928345 4.40744629 -2.76928345 4.40744629 -2.09155273 3.05371094 C-1 1 -1 1 0 0 Z " fill="#EB1D25" transform="translate(210,360)"/>
<path d="M0 0 C3.52709749 3.52709749 4.26615683 8.68086465 5.6875 13.375 C6.02072266 14.42945313 6.35394531 15.48390625 6.69726562 16.5703125 C7.00728516 17.58609375 7.31730469 18.601875 7.63671875 19.6484375 C8.06537231 21.04328369 8.06537231 21.04328369 8.50268555 22.46630859 C9.01452791 25.07401604 8.87113495 26.52069977 8 29 C5.8000649 24.05175888 3.93874993 19.101212 2.3125 13.9375 C2.08755859 13.25623047 1.86261719 12.57496094 1.63085938 11.87304688 C0.34160905 7.79368642 -0.2466469 4.27299083 0 0 Z " fill="#EB1F28" transform="translate(118,385)"/>
<path d="M0 0 C4.12760035 2.06380017 5.43324135 8.36207248 7.1875 12.4375 C7.90196289 14.05108398 7.90196289 14.05108398 8.63085938 15.69726562 C9.07623047 16.72400391 9.52160156 17.75074219 9.98046875 18.80859375 C10.39192139 19.75532959 10.80337402 20.70206543 11.22729492 21.67749023 C12 24 12 24 11 26 C7.80506882 21.4903405 5.44023342 16.9416773 3.25 11.875 C2.93417969 11.17246094 2.61835937 10.46992188 2.29296875 9.74609375 C0.75216167 6.21757885 0 3.90677418 0 0 Z " fill="#EB1F28" transform="translate(96,331)"/>
<path d="M0 0 C0.99 0.33 1.98 0.66 3 1 C0.95857689 2.72945489 -1.08313202 4.45857048 -3.125 6.1875 C-3.69476563 6.67025391 -4.26453125 7.15300781 -4.8515625 7.65039062 C-8.55341695 10.78434695 -12.27017932 13.899374 -16 17 C-16.66 16.67 -17.32 16.34 -18 16 C-14.49936498 11.53570702 -10.87690321 8.00059731 -6.375 4.5625 C-5.80265625 4.10423828 -5.2303125 3.64597656 -4.640625 3.17382812 C-2.9609375 1.87890625 -2.9609375 1.87890625 0 0 Z " fill="#F01E27" transform="translate(278,196)"/>
<path d="M0 0 C-1.27147826 3.81443478 -2.97245743 4.79325021 -6.125 7.25 C-10.22478504 10.50430408 -13.95409101 13.80861206 -17.46484375 17.6875 C-19.2734276 19.23377016 -20.70503424 19.49621985 -23 20 C-18.76928877 14.84299951 -14.31391258 10.39517962 -9.25 6.0625 C-8.57839844 5.47404297 -7.90679688 4.88558594 -7.21484375 4.27929688 C-2.25463669 0 -2.25463669 0 0 0 Z " fill="#236795" transform="translate(949,214)"/>
<path d="M0 0 C0.33 0.66 0.66 1.32 1 2 C-0.90237159 4.80165826 -2.82424555 7.58937379 -4.75 10.375 C-5.28882813 11.1690625 -5.82765625 11.963125 -6.3828125 12.78125 C-6.91132813 13.54179687 -7.43984375 14.30234375 -7.984375 15.0859375 C-8.70705566 16.1385376 -8.70705566 16.1385376 -9.44433594 17.21240234 C-11.14283413 19.16412924 -12.63025208 20.01185983 -15 21 C-10.4754266 13.56273248 -5.58047693 6.68207757 0 0 Z " fill="#EE2529" transform="translate(270,263)"/>
<path d="M0 0 C0.65136719 1.7590332 0.65136719 1.7590332 1 4 C0.05957031 5.90698242 0.05957031 5.90698242 -1.421875 7.85546875 C-1.95296875 8.55994141 -2.4840625 9.26441406 -3.03125 9.99023438 C-3.5984375 10.71533203 -4.165625 11.44042969 -4.75 12.1875 C-5.30171875 12.92419922 -5.8534375 13.66089844 -6.421875 14.41992188 C-10.58773544 19.86257848 -10.58773544 19.86257848 -14 21 C-12.42869189 17.54960177 -10.38146545 14.66484214 -8.125 11.625 C-5.31380437 7.8068852 -2.57985799 3.97728106 0 0 Z " fill="#EA1D24" transform="translate(177,420)"/>
<path d="M0 0 C0.66 0 1.32 0 2 0 C3.30208104 7.64972609 3.67868907 15.36959514 2 23 C0.45703125 24.6953125 0.45703125 24.6953125 -1 26 C-0.9278125 25.46375 -0.855625 24.9275 -0.78125 24.375 C0.18138269 16.24610176 0.09123205 8.17033709 0 0 Z " fill="#EC2028" transform="translate(205,190)"/>
<path d="M0 0 C0.66 0.33 1.32 0.66 2 1 C2.33 7.6 2.66 14.2 3 21 C-1.98615549 16.01384451 -1.11254197 9.74860763 -1.1328125 3.0390625 C-1 1 -1 1 0 0 Z " fill="#EF2732" transform="translate(102,196)"/>
<path d="M0 0 C0.66 0.33 1.32 0.66 2 1 C2 3.97 2 6.94 2 10 C-2.77609498 8.35821735 -6.79382904 5.73453298 -11 3 C-8.36749612 1.68374806 -7.19820944 2.25186342 -4.375 2.9375 C-3.14910156 3.22947266 -3.14910156 3.22947266 -1.8984375 3.52734375 C-0.95871094 3.76130859 -0.95871094 3.76130859 0 4 C0 2.68 0 1.36 0 0 Z " fill="#F6BE1D" transform="translate(697,258)"/>
<path d="M0 0 C0.79818593 2.30324532 1.15634075 3.55542751 0.33496094 5.89111328 C-0.02823242 6.52774902 -0.39142578 7.16438477 -0.765625 7.8203125 C-1.16136719 8.52027344 -1.55710938 9.22023438 -1.96484375 9.94140625 C-2.38894531 10.66199219 -2.81304687 11.38257813 -3.25 12.125 C-3.65863281 12.85332031 -4.06726563 13.58164062 -4.48828125 14.33203125 C-6.48226921 17.80067268 -7.59156714 19.72771143 -11 22 C-9.48968084 16.73877829 -7.09625809 12.32767414 -4.375 7.625 C-3.95476562 6.88894531 -3.53453125 6.15289062 -3.1015625 5.39453125 C-2.07247236 3.5936235 -1.03689244 1.79642682 0 0 Z " fill="#EB1C24" transform="translate(224,334)"/>
<path d="M0 0 C-6.08933916 5.09108684 -14.22363422 6.51842439 -22 6 C-19.32792565 3.32792565 -16.87468333 2.90734652 -13.25 1.875 C-11.43242187 1.34519531 -11.43242187 1.34519531 -9.578125 0.8046875 C-6.23836286 0.05360562 -3.40548132 -0.15669393 0 0 Z " fill="#FEB21A" transform="translate(412,199)"/>
<path d="M0 0 C0.99 0.33 1.98 0.66 3 1 C1.08435828 2.60540415 -0.83246912 4.209355 -2.75 5.8125 C-3.55824219 6.49022461 -3.55824219 6.49022461 -4.3828125 7.18164062 C-7.20009316 9.53510069 -10.035535 11.83421368 -13 14 C-13.66 13.67 -14.32 13.34 -15 13 C-11.82878531 9.61737099 -8.43806461 6.59422051 -4.875 3.625 C-4.02679688 2.91601562 -3.17859375 2.20703125 -2.3046875 1.4765625 C-1.54414063 0.98929688 -0.78359375 0.50203125 0 0 Z " fill="#F01E27" transform="translate(298,180)"/>
<path d="M0 0 C4.07987697 1.48680983 5.2507273 3.71607391 7.1875 7.5 C7.95126953 8.96953125 7.95126953 8.96953125 8.73046875 10.46875 C10.68795167 14.37166978 11.09603444 16.58241563 11 21 C7.93942959 17.93942959 6.9536655 14.04097008 5.4140625 10.04296875 C3.9631845 6.92077548 2.17257999 4.64869859 0 2 C0 1.34 0 0.68 0 0 Z " fill="#FDB51F" transform="translate(530,44)"/>
<path d="M0 0 C0.66 0.33 1.32 0.66 2 1 C0.56542672 1.9834496 -0.87277406 2.96160921 -2.3125 3.9375 C-3.11300781 4.48277344 -3.91351562 5.02804687 -4.73828125 5.58984375 C-8.31839376 7.82200371 -11.06078285 8.11609373 -15.1875 8.0625 C-16.53908203 8.04896484 -16.53908203 8.04896484 -17.91796875 8.03515625 C-18.60503906 8.02355469 -19.29210937 8.01195312 -20 8 C-20 7.34 -20 6.68 -20 6 C-18.71416016 5.85304688 -18.71416016 5.85304688 -17.40234375 5.703125 C-10.58846444 4.81202015 -5.75830821 3.71090973 0 0 Z " fill="#2C6B94" transform="translate(770,452)"/>
<path d="M0 0 C0 0.99 0 1.98 0 3 C-2.43123269 4.36663387 -4.86886163 5.7183867 -7.3125 7.0625 C-8.00279297 7.45244141 -8.69308594 7.84238281 -9.40429688 8.24414062 C-11.22925688 9.24037483 -13.11273877 10.12752842 -15 11 C-15.99 10.67 -16.98 10.34 -18 10 C-16.27136297 8.89500435 -14.54206612 7.79104086 -12.8125 6.6875 C-11.84957031 6.07261719 -10.88664062 5.45773438 -9.89453125 4.82421875 C-8.93933594 4.22222656 -7.98414063 3.62023437 -7 3 C-6.09636719 2.42894531 -5.19273437 1.85789063 -4.26171875 1.26953125 C-2 0 -2 0 0 0 Z " fill="#FDAF1C" transform="translate(332,227)"/>
<path d="M0 0 C-0.66 0 -1.32 0 -2 0 C-2 0.66 -2 1.32 -2 2 C-3.91197039 2.70045456 -5.82980435 3.384919 -7.75 4.0625 C-8.81734375 4.44535156 -9.8846875 4.82820312 -10.984375 5.22265625 C-13.92280042 5.98010011 -15.22348948 6.07151741 -18 5 C-17.15695312 4.65066406 -16.31390625 4.30132812 -15.4453125 3.94140625 C-14.34960938 3.48636719 -13.25390625 3.03132812 -12.125 2.5625 C-11.03445313 2.11003906 -9.94390625 1.65757812 -8.8203125 1.19140625 C-3.50843558 -1.05253067 -3.50843558 -1.05253067 0 0 Z " fill="#FEB11A" transform="translate(385,207)"/>
<path d="M0 0 C-2.78748519 1.67373751 -5.58064427 3.33776267 -8.375 5 C-9.1690625 5.47695312 -9.963125 5.95390625 -10.78125 6.4453125 C-11.92207031 7.12207031 -11.92207031 7.12207031 -13.0859375 7.8125 C-13.7876709 8.23144531 -14.4894043 8.65039062 -15.21240234 9.08203125 C-17 10 -17 10 -19 10 C-19 9.34 -19 8.68 -19 8 C-16.40251918 6.4666195 -13.79812104 4.94820332 -11.1875 3.4375 C-10.44951172 2.99986328 -9.71152344 2.56222656 -8.95117188 2.11132812 C-8.23896484 1.70205078 -7.52675781 1.29277344 -6.79296875 0.87109375 C-6.1383667 0.48880615 -5.48376465 0.10651855 -4.80932617 -0.28735352 C-3 -1 -3 -1 0 0 Z " fill="#246C9D" transform="translate(943,195)"/>
<path d="M0 0 C2.46200213 2.24666667 3.98692 4.50860051 5.5625 7.4375 C5.97628906 8.19933594 6.39007813 8.96117188 6.81640625 9.74609375 C7.90457363 11.81828047 8.96288277 13.90186883 10 16 C9.01 16 8.02 16 7 16 C5.17578125 13.515625 5.17578125 13.515625 3.3125 10.25 C2.68988281 9.18265625 2.06726563 8.1153125 1.42578125 7.015625 C0 4 0 4 0 0 Z " fill="#FDB21B" transform="translate(429,103)"/>
<path d="M0 0 C1.02891637 3.0867491 0.98947742 4.13934736 0.44140625 7.23046875 C0.30283203 8.03291016 0.16425781 8.83535156 0.02148438 9.66210938 C-0.12998047 10.49548828 -0.28144531 11.32886719 -0.4375 12.1875 C-0.58509766 13.03248047 -0.73269531 13.87746094 -0.88476562 14.74804688 C-1.24996003 16.8331891 -1.6241243 18.91675673 -2 21 C-2.33 21 -2.66 21 -3 21 C-3.55353075 6.21867882 -3.55353075 6.21867882 0 0 Z " fill="#FEB319" transform="translate(427,62)"/>
<path d="M0 0 C2 0 2 0 3.55078125 1.50390625 C7.27959797 5.86108233 10.75044549 10.27337526 14 15 C11 15 11 15 9.31640625 13.42578125 C8.44822266 12.37970703 8.44822266 12.37970703 7.5625 11.3125 C6.9540625 10.58417969 6.345625 9.85585938 5.71875 9.10546875 C5.1515625 8.41066406 4.584375 7.71585937 4 7 C3.195625 6.05125 2.39125 5.1025 1.5625 4.125 C0 2 0 2 0 0 Z " fill="#24638D" transform="translate(650,285)"/>
<path d="M0 0 C0.99 0.33 1.98 0.66 3 1 C1.40112446 2.48488441 -0.20428905 3.96273145 -1.8125 5.4375 C-2.70582031 6.26121094 -3.59914062 7.08492187 -4.51953125 7.93359375 C-7 10 -7 10 -10 11 C-10 11.66 -10 12.32 -10 13 C-10.66 12.67 -11.32 12.34 -12 12 C-4.09867173 2.61859583 -4.09867173 2.61859583 0 0 Z " fill="#F01C26" transform="translate(255,215)"/>
<path d="M0 0 C0 4.91075921 -3.69530187 7.60955122 -7 11 C-8.94602014 12.76450416 -10.92714711 14.3821636 -13 16 C-11.3383196 11.87582937 -8.37661982 8.93445961 -5.375 5.75 C-4.859375 5.19570312 -4.34375 4.64140625 -3.8125 4.0703125 C-2.54574965 2.7097288 -1.27342185 1.35434163 0 0 Z " fill="#FED325" transform="translate(325,198)"/>
<path d="M0 0 C5.56890517 0.47986031 10.67067568 1.29915181 16 3 C16 3.66 16 4.32 16 5 C14.08210287 4.71653722 12.16570817 4.4228972 10.25 4.125 C9.18265625 3.96257812 8.1153125 3.80015625 7.015625 3.6328125 C4.32291129 3.06776118 2.36427561 2.36577086 0 1 C0 0.67 0 0.34 0 0 Z " fill="#FEB21A" transform="translate(546,150)"/>
<path d="M0 0 C0.33 0.66 0.66 1.32 1 2 C-2.99795892 2.95619733 -6.70803922 3.1039592 -10.8125 3.0625 C-11.97394531 3.05347656 -13.13539063 3.04445312 -14.33203125 3.03515625 C-15.21246094 3.02355469 -16.09289062 3.01195312 -17 3 C-16.67 2.34 -16.34 1.68 -16 1 C-10.80342022 -0.18205463 -5.30441982 -0.11286 0 0 Z " fill="#FEB418" transform="translate(475,140)"/>
<path d="M0 0 C-0.33 0.66 -0.66 1.32 -1 2 C-5.38678592 3.3708706 -10.44247404 3.52827904 -15 3 C-15.66 2.34 -16.32 1.68 -17 1 C-11.30494264 0.3583034 -5.73266804 -0.12462322 0 0 Z " fill="#2A6C99" transform="translate(787,256)"/>
<path d="M0 0 C0.33 0 0.66 0 1 0 C1.42952315 4.49783673 0.28654658 6.68029205 -2.3125 10.3125 C-2.92738281 11.19550781 -3.54226562 12.07851562 -4.17578125 12.98828125 C-4.77777344 13.65214844 -5.37976563 14.31601563 -6 15 C-6.99 15 -7.98 15 -9 15 C-8.60167969 14.41992188 -8.20335937 13.83984375 -7.79296875 13.2421875 C-4.87248393 8.9360712 -2.18115554 4.725837 0 0 Z " fill="#ED1D26" transform="translate(202,220)"/>
<path d="M0 0 C-1.7873962 1.33905267 -3.58004953 2.67109066 -5.375 4 C-6.37273437 4.7425 -7.37046875 5.485 -8.3984375 6.25 C-11 8 -11 8 -13 8 C-11.68818459 4.06455377 -9.04041273 2.25061837 -5.8515625 -0.14453125 C-3.50485148 -1.22877115 -2.38346137 -0.85573613 0 0 Z " fill="#F01F26" transform="translate(318,169)"/>
<path d="M0 0 C3.3 0.33 6.6 0.66 10 1 C7.14206684 3.85793316 4.85334416 3.40799941 0.875 3.625 C-0.40632813 3.69976562 -1.68765625 3.77453125 -3.0078125 3.8515625 C-3.99523437 3.90054688 -4.98265625 3.94953125 -6 4 C-6 3.34 -6 2.68 -6 2 C-4.02 2 -2.04 2 0 2 C0 1.34 0 0.68 0 0 Z " fill="#FEB319" transform="translate(447,142)"/>
<path d="M0 0 C3.21764451 4.82646677 4.36261136 10.19821824 4 16 C3.34 16 2.68 16 2 16 C0.61470179 10.54538831 -0.2396943 5.63281599 0 0 Z " fill="#EA1D26" transform="translate(127,415)"/>
<path d="M0 0 C-0.92046296 2.30115739 -1.58065284 3.71516042 -3.65625 5.125 C-6.77521041 6.28941189 -9.43089594 6.19138208 -12.75 6.125 C-13.92046875 6.10695313 -15.0909375 6.08890625 -16.296875 6.0703125 C-17.63492188 6.03550781 -17.63492188 6.03550781 -19 6 C-19 5.67 -19 5.34 -19 5 C-18.27554688 4.97421875 -17.55109375 4.9484375 -16.8046875 4.921875 C-10.77039158 4.56786297 -4.90980182 0 0 0 Z " fill="#E8161F" transform="translate(162,442)"/>
<path d="M0 0 C0.66 0.33 1.32 0.66 2 1 C-1.63 4.63 -5.26 8.26 -9 12 C-9.33 11.01 -9.66 10.02 -10 9 C-6.7 6.03 -3.4 3.06 0 0 Z " fill="#236C9C" transform="translate(828,274)"/>
<path d="M0 0 C5.60461531 0.42089996 10.72086547 0.91613111 16 3 C16 3.33 16 3.66 16 4 C9.79029227 4.33266291 5.71735105 3.45029331 0 1 C0 0.67 0 0.34 0 0 Z " fill="#FDB41B" transform="translate(530,198)"/>
<path d="M0 0 C0.66 0 1.32 0 2 0 C2.86375896 1.61992165 3.71575854 3.24611861 4.5625 4.875 C5.03816406 5.77992188 5.51382813 6.68484375 6.00390625 7.6171875 C6.33261719 8.40351563 6.66132812 9.18984375 7 10 C6.67 10.66 6.34 11.32 6 12 C3.02404533 9.44918171 1.55997434 6.56565563 0 3 C0 2.01 0 1.02 0 0 Z " fill="#EB202A" transform="translate(86,312)"/>
<path d="M0 0 C0.33 0.99 0.66 1.98 1 3 C-0.65234375 5.48046875 -0.65234375 5.48046875 -2.9375 8.1875 C-3.68902344 9.08855469 -4.44054687 9.98960937 -5.21484375 10.91796875 C-5.80394531 11.60503906 -6.39304687 12.29210937 -7 13 C-7.66 12.67 -8.32 12.34 -9 12 C-6.03 8.04 -3.06 4.08 0 0 Z " fill="#F12628" transform="translate(280,249)"/>
<path d="M0 0 C0.99 0.33 1.98 0.66 3 1 C-0.63 4.3 -4.26 7.6 -8 11 C-8 8 -8 8 -6.25 5.95703125 C-5.5075 5.24933594 -4.765 4.54164063 -4 3.8125 C-2.88625 2.73935547 -2.88625 2.73935547 -1.75 1.64453125 C-1.1725 1.10183594 -0.595 0.55914062 0 0 Z " fill="#F11520" transform="translate(236,232)"/>
<path d="M0 0 C8.57142857 -0.28571429 8.57142857 -0.28571429 12 2 C11 4 11 4 9 5 C2.38888889 3.58333333 2.38888889 3.58333333 0 0 Z " fill="#3283B9" transform="translate(951,188)"/>
<path d="M0 0 C1.98523557 1.98523557 2.85464378 3.5016206 4.0625 6 C4.40410156 6.70125 4.74570313 7.4025 5.09765625 8.125 C5.54431641 9.053125 5.54431641 9.053125 6 10 C6.33 10.66 6.66 11.32 7 12 C5.1875 11.8125 5.1875 11.8125 3 11 C0.07099943 7.33874929 -0.32215416 4.6175429 0 0 Z " fill="#E91B25" transform="translate(131,432)"/>
<path d="M0 0 C3.57011026 3.732388 4.10913442 8.0949989 5 13 C1.33329274 10.5555285 1.06655209 9.18416588 0 5 C-0.125 2.125 -0.125 2.125 0 0 Z " fill="#EA1D25" transform="translate(113,371)"/>
<path d="M0 0 C2.31 0 4.62 0 7 0 C1.52123488 3.65251008 -1.43296699 4.2189011 -8 4 C-4.77208445 1.8480563 -3.71599191 1.79913557 0 2 C0 1.34 0 0.68 0 0 Z " fill="#FCA923" transform="translate(291,245)"/>
<path d="M0 0 C0.66 0.33 1.32 0.66 2 1 C-6.261959 6.74031891 -6.261959 6.74031891 -11 6 C-7.57874946 3.12614955 -4.16111563 1.54115394 0 0 Z " fill="#FDAE18" transform="translate(344,221)"/>
<path d="M0 0 C4.96916636 0.51405169 9.29026351 1.23384882 14 3 C14 3.33 14 3.66 14 4 C8.34605369 4.34615998 4.96993194 3.43425238 0 1 C0 0.67 0 0.34 0 0 Z " fill="#FDB017" transform="translate(547,202)"/>
<path d="M0 0 C0.66 0.33 1.32 0.66 2 1 C1.01 2.485 1.01 2.485 0 4 C-0.24107326 6.28648848 -0.24107326 6.28648848 -0.125 8.6875 C-0.10695313 9.49574219 -0.08890625 10.30398437 -0.0703125 11.13671875 C-0.04710937 11.75160156 -0.02390625 12.36648437 0 13 C-0.99 12.34 -1.98 11.68 -3 11 C-3.42431591 7.18115682 -3.5390434 4.87594552 -1.5 1.5625 C-1.005 1.046875 -0.51 0.53125 0 0 Z " fill="#EB1724" transform="translate(11,188)"/>
<path d="M0 0 C3.94876098 0.56410871 6.75634176 1.65735794 10 4 C10.33 4.99 10.66 5.98 11 7 C7.2089881 5.55049545 3.6125362 3.84827434 0 2 C0 1.34 0 0.68 0 0 Z " fill="#FDB31C" transform="translate(611,176)"/>
<path d="M0 0 C-0.57492187 0.27457031 -1.14984375 0.54914063 -1.7421875 0.83203125 C-4.70839671 2.36645435 -7.42307579 4.21734322 -10.1953125 6.07421875 C-10.79085938 6.37972656 -11.38640625 6.68523437 -12 7 C-12.66 6.67 -13.32 6.34 -14 6 C-9.46146857 1.13728775 -6.7130701 -0.30513955 0 0 Z " fill="#F01E25" transform="translate(343,153)"/>
<path d="M0 0 C3.27742098 3.10026309 5.93104837 5.97098894 8 10 C8 10.66 8 11.32 8 12 C7.34 12 6.68 12 6 12 C4.4921875 10.13671875 4.4921875 10.13671875 2.875 7.6875 C2.33617187 6.88699219 1.79734375 6.08648437 1.2421875 5.26171875 C0 3 0 3 0 0 Z " fill="#EC1B25" transform="translate(48,250)"/>
<path d="M0 0 C0.33 1.32 0.66 2.64 1 4 C-0.21484375 5.921875 -0.21484375 5.921875 -1.9375 7.75 C-2.50339844 8.36359375 -3.06929688 8.9771875 -3.65234375 9.609375 C-4.31943359 10.29773438 -4.31943359 10.29773438 -5 11 C-5.66 10.67 -6.32 10.34 -7 10 C-3.535 5.05 -3.535 5.05 0 0 Z " fill="#EF1B23" transform="translate(262,273)"/>
<path d="M0 0 C1.77007714 -0.08114106 3.54122098 -0.13925505 5.3125 -0.1875 C6.29863281 -0.22230469 7.28476562 -0.25710937 8.30078125 -0.29296875 C11 0 11 0 12.85546875 1.51171875 C13.23316406 2.00285156 13.61085938 2.49398437 14 3 C12.22844346 2.88570603 10.45773771 2.75816963 8.6875 2.625 C7.70136719 2.55539063 6.71523438 2.48578125 5.69921875 2.4140625 C3 2 3 2 0 0 Z " fill="#FEAD13" transform="translate(521,145)"/>
<path d="M0 0 C0 0.66 0 1.32 0 2 C-1.41623216 2.05447047 -2.83308191 2.09300508 -4.25 2.125 C-5.03890625 2.14820313 -5.8278125 2.17140625 -6.640625 2.1953125 C-9.20731941 1.9828378 -10.7916067 1.28654105 -13 0 C-11.39679026 -0.19551338 -9.79237014 -0.38111983 -8.1875 -0.5625 C-7.29417969 -0.66691406 -6.40085937 -0.77132812 -5.48046875 -0.87890625 C-3 -1 -3 -1 0 0 Z " fill="#FDAF17" transform="translate(520,143)"/>
<path d="M0 0 C1 3 1 3 0.328125 4.7890625 C-0.02765625 5.39492188 -0.3834375 6.00078125 -0.75 6.625 C-1.09546875 7.23601562 -1.4409375 7.84703125 -1.796875 8.4765625 C-3 10 -3 10 -6 11 C-4.54955729 6.89041233 -2.48889248 3.56741255 0 0 Z " fill="#EB1D23" transform="translate(185,407)"/>
<path d="M0 0 C0.66 0.33 1.32 0.66 2 1 C-1.99613521 4.71069698 -4.37082652 6.59791618 -10 7 C-7.20283196 3.70921407 -3.80471422 1.93694542 0 0 Z " fill="#216494" transform="translate(807,246)"/>
<path d="M0 0 C4.37859255 0.50522222 6.81651224 3.17827222 10 6 C9.67 6.99 9.34 7.98 9 9 C7.49704815 7.69088122 5.99770689 6.37761608 4.5 5.0625 C3.6646875 4.33160156 2.829375 3.60070312 1.96875 2.84765625 C1.3190625 2.23792969 0.669375 1.62820312 0 1 C0 0.67 0 0.34 0 0 Z " fill="#EE1520" transform="translate(57,216)"/>
<path d="M0 0 C3.375 -0.125 3.375 -0.125 7 0 C9 2 9 2 9.1953125 4.1640625 C9.17210937 4.97617188 9.14890625 5.78828125 9.125 6.625 C9.10695313 7.44226563 9.08890625 8.25953125 9.0703125 9.1015625 C9.03550781 10.04128906 9.03550781 10.04128906 9 11 C8.67 11 8.34 11 8 11 C7.79375 9.72125 7.5875 8.4425 7.375 7.125 C6.91516467 4.92186032 6.91516467 4.92186032 6 3 C3.00571856 1.38852558 3.00571856 1.38852558 0 1 C0 0.67 0 0.34 0 0 Z " fill="#F51A2B" transform="translate(344,153)"/>
<path d="M0 0 C4.42679007 1.47559669 4.91432696 3.90057368 7 8 C7 8.66 7 9.32 7 10 C2.57320993 8.52440331 2.08567304 6.09942632 0 2 C0 1.34 0 0.68 0 0 Z " fill="#EB242E" transform="translate(73,290)"/>
<path d="M0 0 C7.75 0.875 7.75 0.875 10 2 C10 2.66 10 3.32 10 4 C6.28111761 3.49287967 3.26545761 2.88391785 0 1 C0 0.67 0 0.34 0 0 Z " fill="#FDB31A" transform="translate(571,158)"/>
<path d="M0 0 C0.66 0.33 1.32 0.66 2 1 C-0.97 3.97 -3.94 6.94 -7 10 C-7.33 9.01 -7.66 8.02 -8 7 C-5.36 4.69 -2.72 2.38 0 0 Z " fill="#1C6191" transform="translate(815,286)"/>
<path d="M0 0 C1.32 0.66 2.64 1.32 4 2 C2.71475739 2.86380259 1.42157581 3.71580369 0.125 4.5625 C-0.59429688 5.03816406 -1.31359375 5.51382813 -2.0546875 6.00390625 C-2.69664062 6.33261719 -3.33859375 6.66132813 -4 7 C-4.66 6.67 -5.32 6.34 -6 6 C-4 4 -2 2 0 0 Z " fill="#2B7FB9" transform="translate(922,204)"/>
<path d="M0 0 C-0.33 0.66 -0.66 1.32 -1 2 C-3.06640625 2.6328125 -3.06640625 2.6328125 -5.5625 3.125 C-6.80193359 3.37636719 -6.80193359 3.37636719 -8.06640625 3.6328125 C-8.70449219 3.75398437 -9.34257812 3.87515625 -10 4 C-7.16124653 -0.25813021 -4.8137938 -0.13010254 0 0 Z " fill="#FEB118" transform="translate(407,154)"/>
<path d="M0 0 C0.99 0.33 1.98 0.66 3 1 C3.66 4.3 4.32 7.6 5 11 C2.77174356 8.77174356 2.30760631 7.34238372 1.375 4.375 C1.11460937 3.55773437 0.85421875 2.74046875 0.5859375 1.8984375 C0.39257812 1.27195313 0.19921875 0.64546875 0 0 Z " fill="#FCB216" transform="translate(691,246)"/>
<path d="M0 0 C0.66 0.33 1.32 0.66 2 1 C-1.28804981 3.91227269 -3.59885603 5.49701212 -8 6 C-5.63404067 3.38499232 -3.13950774 1.61000397 0 0 Z " fill="#EC1C25" transform="translate(186,242)"/>
<path d="M0 0 C0.99 0.33 1.98 0.66 3 1 C0.69 2.65 -1.62 4.3 -4 6 C-4.66 5.34 -5.32 4.68 -6 4 C-3.1875 1.9375 -3.1875 1.9375 0 0 Z " fill="#EE212C" transform="translate(125,157)"/>
<path d="M0 0 C0.33 0.99 0.66 1.98 1 3 C-0.32 4.32 -1.64 5.64 -3 7 C-3.99 6.67 -4.98 6.34 -6 6 C-4.02 4.02 -2.04 2.04 0 0 Z " fill="#EE212B" transform="translate(200,268)"/>
<path d="M0 0 C0.66 0.33 1.32 0.66 2 1 C-1.96 4.465 -1.96 4.465 -6 8 C-6 5 -6 5 -4.6875 3.61328125 C-3.125 2.40885417 -1.5625 1.20442708 0 0 Z " fill="#1E6392" transform="translate(841,263)"/>
<path d="M0 0 C4.455 0.99 4.455 0.99 9 2 C9 2.99 9 3.98 9 5 C5.51694958 4.35499066 2.93797836 2.95865224 0 1 C0 0.67 0 0.34 0 0 Z " fill="#F3CB17" transform="translate(686,260)"/>
<path d="M0 0 C0.99 0.33 1.98 0.66 3 1 C3.33 3.97 3.66 6.94 4 10 C1.81024227 6.71536341 1.00193437 3.79303725 0 0 Z " fill="#EC1B27" transform="translate(201,179)"/>
<path d="M0 0 C3.00617269 3.00617269 2.59585316 5.82381598 3 10 C1.5 8.9375 1.5 8.9375 0 7 C-0.1875 3.3125 -0.1875 3.3125 0 0 Z " fill="#E9151D" transform="translate(124,404)"/>
<path d="M0 0 C1.98 1.65 3.96 3.3 6 5 C5.34 5.66 4.68 6.32 4 7 C2 5.75 2 5.75 0 4 C0 2.68 0 1.36 0 0 Z " fill="#317299" transform="translate(705,274)"/>
<path d="M0 0 C0.66 0 1.32 0 2 0 C0.52307692 4.67692308 0.52307692 4.67692308 -2.125 6.3125 C-3.053125 6.6528125 -3.053125 6.6528125 -4 7 C-2.79618552 4.50638429 -1.54571278 2.31856917 0 0 Z " fill="#FEB31A" transform="translate(532,113)"/>
<path d="M0 0 C1.9453125 -0.29296875 1.9453125 -0.29296875 4.125 -0.1875 C5.40375 -0.125625 6.6825 -0.06375 8 0 C4.55549263 2.29633824 2.06187717 2.54016485 -2 3 C-1.34 2.01 -0.68 1.02 0 0 Z " fill="#FEAF12" transform="translate(466,22)"/>
<path d="M0 0 C3 1 3 1 3 1 Z " fill="#3B7FA9" transform="translate(744,459)"/>
<path d="M0 0 C3 1 3 1 3 1 Z " fill="#3985B7" transform="translate(766,259)"/>
<path d="" fill="#5E8EA6" transform="translate(0,0)"/>
<path d="M0 0 C0.33 0.66 0.66 1.32 1 2 C0.34 1.67 -0.32 1.34 -1 1 C-0.67 0.67 -0.34 0.34 0 0 Z " fill="#5D8DA7" transform="translate(721,202)"/>
<path d="" fill="#E3343E" transform="translate(0,0)"/>
<path d="" fill="#307CB0" transform="translate(0,0)"/>
<path d="M0 0 C2 1 2 1 2 1 Z " fill="#3384B9" transform="translate(778,260)"/>
<path d="M0 0 C2 1 2 1 2 1 Z " fill="#3583B9" transform="translate(783,259)"/>
<path d="" fill="#5D8EA3" transform="translate(0,0)"/>
<path d="M0 0 C2 1 2 1 2 1 Z " fill="#FABF2F" transform="translate(491,196)"/>
<path d="M0 0 C2 1 2 1 2 1 Z " fill="#FDBF2E" transform="translate(482,196)"/>
<path d="M0 0 C2 1 2 1 2 1 Z " fill="#3682B4" transform="translate(943,190)"/>
<path d="M0 0 C2 1 2 1 2 1 Z " fill="#F7B035" transform="translate(367,166)"/>
<path d="M0 0 C2 1 2 1 2 1 Z " fill="#4589B2" transform="translate(744,158)"/>
<path d="M0 0 C2 1 2 1 2 1 Z " fill="#3F89B6" transform="translate(760,150)"/>
<path d="M0 0 C2 1 2 1 2 1 Z " fill="#E23D43" transform="translate(173,150)"/>
<path d="" fill="#3479AD" transform="translate(0,0)"/>
<path d="" fill="#E4333E" transform="translate(0,0)"/>
<path d="" fill="#347CAF" transform="translate(0,0)"/>
<path d="" fill="#E5363E" transform="translate(0,0)"/>
<path d="" fill="#2F7AAC" transform="translate(0,0)"/>
<path d="" fill="#E4353E" transform="translate(0,0)"/>
<path d="" fill="#E0323A" transform="translate(0,0)"/>
<path d="" fill="#3381B5" transform="translate(0,0)"/>
<path d="" fill="#E2343E" transform="translate(0,0)"/>
<path d="" fill="#317DAF" transform="translate(0,0)"/>
<path d="" fill="#347DB3" transform="translate(0,0)"/>
<path d="" fill="#347DB3" transform="translate(0,0)"/>
<path d="" fill="#367FAF" transform="translate(0,0)"/>
<path d="" fill="#317DB2" transform="translate(0,0)"/>
<path d="" fill="#337EAF" transform="translate(0,0)"/>
<path d="" fill="#327FB1" transform="translate(0,0)"/>
<path d="" fill="#E93540" transform="translate(0,0)"/>
<path d="" fill="#3582B8" transform="translate(0,0)"/>
<path d="" fill="#E83A3F" transform="translate(0,0)"/>
<path d="" fill="#2D81B5" transform="translate(0,0)"/>
<path d="" fill="#EC303A" transform="translate(0,0)"/>
<path d="" fill="#ED2F3C" transform="translate(0,0)"/>
<path d="" fill="#E6353F" transform="translate(0,0)"/>
<path d="" fill="#E73D3F" transform="translate(0,0)"/>
<path d="" fill="#E93140" transform="translate(0,0)"/>
<path d="" fill="#EA4943" transform="translate(0,0)"/>
<path d="" fill="#EB3440" transform="translate(0,0)"/>
<path d="" fill="#E74B44" transform="translate(0,0)"/>
<path d="" fill="#E94840" transform="translate(0,0)"/>
<path d="" fill="#EA3542" transform="translate(0,0)"/>
<path d="" fill="#E74942" transform="translate(0,0)"/>
<path d="" fill="#EC333F" transform="translate(0,0)"/>
<path d="" fill="#EA3741" transform="translate(0,0)"/>
<path d="" fill="#EC3441" transform="translate(0,0)"/>
<path d="" fill="#EA3240" transform="translate(0,0)"/>
<path d="" fill="#9BA078" transform="translate(0,0)"/>
<path d="" fill="#ACA470" transform="translate(0,0)"/>
<path d="" fill="#E96143" transform="translate(0,0)"/>
<path d="" fill="#4A87A8" transform="translate(0,0)"/>
<path d="" fill="#3481B6" transform="translate(0,0)"/>
<path d="" fill="#3983B3" transform="translate(0,0)"/>
<path d="" fill="#E93341" transform="translate(0,0)"/>
<path d="" fill="#EC353E" transform="translate(0,0)"/>
<path d="" fill="#4E86A4" transform="translate(0,0)"/>
<path d="" fill="#F47C3C" transform="translate(0,0)"/>
<path d="" fill="#F6763D" transform="translate(0,0)"/>
<path d="" fill="#3480B5" transform="translate(0,0)"/>
<path d="" fill="#4586B0" transform="translate(0,0)"/>
<path d="" fill="#4C83A3" transform="translate(0,0)"/>
<path d="" fill="#DFB34C" transform="translate(0,0)"/>
<path d="" fill="#5585A3" transform="translate(0,0)"/>
<path d="" fill="#DBB547" transform="translate(0,0)"/>
<path d="" fill="#3386BB" transform="translate(0,0)"/>
<path d="" fill="#548BA5" transform="translate(0,0)"/>
<path d="" fill="#658D9D" transform="translate(0,0)"/>
<path d="" fill="#3584B5" transform="translate(0,0)"/>
<path d="" fill="#3483B9" transform="translate(0,0)"/>
<path d="" fill="#3286BD" transform="translate(0,0)"/>
<path d="" fill="#3482BA" transform="translate(0,0)"/>
<path d="" fill="#E83C45" transform="translate(0,0)"/>
<path d="" fill="#5B8BA5" transform="translate(0,0)"/>
<path d="" fill="#3687BC" transform="translate(0,0)"/>
<path d="" fill="#C2A85C" transform="translate(0,0)"/>
<path d="" fill="#F9BC32" transform="translate(0,0)"/>
<path d="" fill="#CBB35B" transform="translate(0,0)"/>
<path d="" fill="#E54649" transform="translate(0,0)"/>
<path d="" fill="#E8373F" transform="translate(0,0)"/>
<path d="" fill="#FBBD35" transform="translate(0,0)"/>
<path d="" fill="#FBBC33" transform="translate(0,0)"/>
<path d="" fill="#FDC134" transform="translate(0,0)"/>
<path d="" fill="#FDC12F" transform="translate(0,0)"/>
<path d="" fill="#FEC22F" transform="translate(0,0)"/>
<path d="" fill="#FBC030" transform="translate(0,0)"/>
<path d="" fill="#558BAB" transform="translate(0,0)"/>
<path d="" fill="#3786BC" transform="translate(0,0)"/>
<path d="" fill="#E93744" transform="translate(0,0)"/>
<path d="" fill="#578EAB" transform="translate(0,0)"/>
<path d="" fill="#5B8FA9" transform="translate(0,0)"/>
<path d="" fill="#5F8EA8" transform="translate(0,0)"/>
<path d="" fill="#3985B9" transform="translate(0,0)"/>
<path d="" fill="#E64441" transform="translate(0,0)"/>
<path d="" fill="#E33E45" transform="translate(0,0)"/>
<path d="" fill="#3684B9" transform="translate(0,0)"/>
<path d="" fill="#F0BE35" transform="translate(0,0)"/>
<path d="" fill="#3985BA" transform="translate(0,0)"/>
<path d="" fill="#F99934" transform="translate(0,0)"/>
<path d="" fill="#FA8236" transform="translate(0,0)"/>
<path d="" fill="#E65045" transform="translate(0,0)"/>
<path d="" fill="#F7BC34" transform="translate(0,0)"/>
<path d="" fill="#E23C44" transform="translate(0,0)"/>
<path d="" fill="#4488B6" transform="translate(0,0)"/>
<path d="" fill="#E53B44" transform="translate(0,0)"/>
<path d="" fill="#3984B6" transform="translate(0,0)"/>
<path d="" fill="#FABE34" transform="translate(0,0)"/>
<path d="" fill="#EA7846" transform="translate(0,0)"/>
<path d="" fill="#EC7946" transform="translate(0,0)"/>
<path d="" fill="#E43C42" transform="translate(0,0)"/>
<path d="" fill="#FEC12F" transform="translate(0,0)"/>
<path d="" fill="#FFC32E" transform="translate(0,0)"/>
<path d="" fill="#FABF2E" transform="translate(0,0)"/>
<path d="" fill="#FFBA33" transform="translate(0,0)"/>
<path d="" fill="#FFC12C" transform="translate(0,0)"/>
<path d="" fill="#FFC12C" transform="translate(0,0)"/>
<path d="" fill="#FFC12D" transform="translate(0,0)"/>
<path d="" fill="#FEC132" transform="translate(0,0)"/>
<path d="" fill="#FEBF31" transform="translate(0,0)"/>
<path d="" fill="#FABF31" transform="translate(0,0)"/>
<path d="" fill="#F9BF3C" transform="translate(0,0)"/>
<path d="" fill="#F5BE32" transform="translate(0,0)"/>
<path d="" fill="#F9BF37" transform="translate(0,0)"/>
</svg>
